%TF.GenerationSoftware,KiCad,Pcbnew,8.0.6*%
%TF.CreationDate,2025-01-20T01:55:33+01:00*%
%TF.ProjectId,Thermometer_CD_Project,54686572-6d6f-46d6-9574-65725f43445f,rev?*%
%TF.SameCoordinates,Original*%
%TF.FileFunction,Soldermask,Top*%
%TF.FilePolarity,Negative*%
%FSLAX46Y46*%
G04 Gerber Fmt 4.6, Leading zero omitted, Abs format (unit mm)*
G04 Created by KiCad (PCBNEW 8.0.6) date 2025-01-20 01:55:33*
%MOMM*%
%LPD*%
G01*
G04 APERTURE LIST*
G04 Aperture macros list*
%AMRoundRect*
0 Rectangle with rounded corners*
0 $1 Rounding radius*
0 $2 $3 $4 $5 $6 $7 $8 $9 X,Y pos of 4 corners*
0 Add a 4 corners polygon primitive as box body*
4,1,4,$2,$3,$4,$5,$6,$7,$8,$9,$2,$3,0*
0 Add four circle primitives for the rounded corners*
1,1,$1+$1,$2,$3*
1,1,$1+$1,$4,$5*
1,1,$1+$1,$6,$7*
1,1,$1+$1,$8,$9*
0 Add four rect primitives between the rounded corners*
20,1,$1+$1,$2,$3,$4,$5,0*
20,1,$1+$1,$4,$5,$6,$7,0*
20,1,$1+$1,$6,$7,$8,$9,0*
20,1,$1+$1,$8,$9,$2,$3,0*%
%AMRotRect*
0 Rectangle, with rotation*
0 The origin of the aperture is its center*
0 $1 length*
0 $2 width*
0 $3 Rotation angle, in degrees counterclockwise*
0 Add horizontal line*
21,1,$1,$2,0,0,$3*%
G04 Aperture macros list end*
%ADD10RoundRect,0.140000X-0.170000X0.140000X-0.170000X-0.140000X0.170000X-0.140000X0.170000X0.140000X0*%
%ADD11RoundRect,0.160000X-0.026517X-0.252791X0.252791X0.026517X0.026517X0.252791X-0.252791X-0.026517X0*%
%ADD12RoundRect,0.140000X0.021213X-0.219203X0.219203X-0.021213X-0.021213X0.219203X-0.219203X0.021213X0*%
%ADD13RoundRect,0.140000X0.219203X0.021213X0.021213X0.219203X-0.219203X-0.021213X-0.021213X-0.219203X0*%
%ADD14C,0.520000*%
%ADD15C,0.770000*%
%ADD16C,1.560000*%
%ADD17R,0.870000X0.300000*%
%ADD18R,0.350000X0.200000*%
%ADD19R,0.300000X0.200000*%
%ADD20R,1.000000X1.000000*%
%ADD21O,1.000000X1.000000*%
%ADD22R,0.280000X0.280000*%
%ADD23O,0.850000X0.280000*%
%ADD24R,0.230000X0.600000*%
%ADD25R,0.250000X0.700000*%
%ADD26C,0.600000*%
%ADD27R,0.650000X0.900000*%
%ADD28R,1.700000X2.150000*%
%ADD29RoundRect,0.135000X-0.035355X0.226274X-0.226274X0.035355X0.035355X-0.226274X0.226274X-0.035355X0*%
%ADD30RoundRect,0.160000X0.197500X0.160000X-0.197500X0.160000X-0.197500X-0.160000X0.197500X-0.160000X0*%
%ADD31RoundRect,0.140000X0.170000X-0.140000X0.170000X0.140000X-0.170000X0.140000X-0.170000X-0.140000X0*%
%ADD32RoundRect,0.140000X-0.219203X-0.021213X-0.021213X-0.219203X0.219203X0.021213X0.021213X0.219203X0*%
%ADD33RoundRect,0.140000X-0.021213X0.219203X-0.219203X0.021213X0.021213X-0.219203X0.219203X-0.021213X0*%
%ADD34RoundRect,0.062500X-0.282843X0.194454X0.194454X-0.282843X0.282843X-0.194454X-0.194454X0.282843X0*%
%ADD35RoundRect,0.062500X-0.282843X-0.194454X-0.194454X-0.282843X0.282843X0.194454X0.194454X0.282843X0*%
%ADD36RotRect,5.300000X5.300000X315.000000*%
%ADD37RoundRect,0.135000X0.185000X-0.135000X0.185000X0.135000X-0.185000X0.135000X-0.185000X-0.135000X0*%
%ADD38R,0.850000X0.850000*%
%ADD39O,0.850000X0.850000*%
%ADD40R,1.525000X0.650000*%
%ADD41R,0.700000X1.600000*%
%ADD42RoundRect,0.135000X-0.185000X0.135000X-0.185000X-0.135000X0.185000X-0.135000X0.185000X0.135000X0*%
%ADD43RotRect,0.300000X0.850000X315.000000*%
%ADD44RotRect,0.300000X0.850000X225.000000*%
%ADD45RotRect,2.550000X2.550000X225.000000*%
%ADD46RoundRect,0.135000X0.135000X0.185000X-0.135000X0.185000X-0.135000X-0.185000X0.135000X-0.185000X0*%
%ADD47RoundRect,0.218750X0.335876X0.026517X0.026517X0.335876X-0.335876X-0.026517X-0.026517X-0.335876X0*%
%ADD48RoundRect,0.140000X-0.140000X-0.170000X0.140000X-0.170000X0.140000X0.170000X-0.140000X0.170000X0*%
%ADD49RoundRect,0.140000X0.140000X0.170000X-0.140000X0.170000X-0.140000X-0.170000X0.140000X-0.170000X0*%
%ADD50R,1.300000X1.300000*%
%ADD51C,1.300000*%
%ADD52C,2.250000*%
G04 APERTURE END LIST*
D10*
%TO.C,C7*%
X163900000Y-88750000D03*
X163900000Y-89710000D03*
%TD*%
D11*
%TO.C,R8*%
X145123950Y-95221024D03*
X145968942Y-94376032D03*
%TD*%
D12*
%TO.C,C17*%
X147221178Y-91778822D03*
X147900000Y-91100000D03*
%TD*%
D13*
%TO.C,C1*%
X153039554Y-85106030D03*
X152360732Y-84427208D03*
%TD*%
D10*
%TO.C,C9*%
X170820000Y-89370000D03*
X170820000Y-90330000D03*
%TD*%
D14*
%TO.C,J3*%
X142450000Y-91950000D03*
D15*
X142450000Y-84450000D03*
D16*
X140300000Y-90600000D03*
X140300000Y-85800000D03*
X144600000Y-90600000D03*
X144600000Y-85800000D03*
D17*
X141585000Y-90950000D03*
X141585000Y-89450000D03*
X141585000Y-88950000D03*
X141585000Y-88450000D03*
X141585000Y-87950000D03*
X141585000Y-87450000D03*
X141585000Y-86950000D03*
X141585000Y-85450000D03*
X143315000Y-85450000D03*
X143315000Y-86950000D03*
X143315000Y-87450000D03*
X143315000Y-87950000D03*
X143315000Y-88450000D03*
X143315000Y-88950000D03*
X143315000Y-89450000D03*
X143315000Y-90950000D03*
%TD*%
D18*
%TO.C,IC3*%
X142325000Y-97600000D03*
D19*
X142300000Y-98100000D03*
X142300000Y-98600000D03*
X142900000Y-98600000D03*
X142900000Y-98100000D03*
X142900000Y-97600000D03*
%TD*%
D20*
%TO.C,J1*%
X173400000Y-97430000D03*
D21*
X173400000Y-98700000D03*
%TD*%
D22*
%TO.C,U4*%
X164861000Y-87750000D03*
D23*
X165146000Y-87750000D03*
D22*
X164861000Y-88250000D03*
D23*
X165146000Y-88250000D03*
D22*
X164861000Y-88750000D03*
D23*
X165146000Y-88750000D03*
D22*
X164861000Y-89250000D03*
D23*
X165146000Y-89250000D03*
D22*
X164861000Y-89750000D03*
D23*
X165146000Y-89750000D03*
X168096000Y-89750000D03*
D22*
X168381000Y-89750000D03*
D23*
X168096000Y-89250000D03*
D22*
X168381000Y-89250000D03*
D23*
X168096000Y-88750000D03*
D22*
X168381000Y-88750000D03*
D23*
X168096000Y-88250000D03*
D22*
X168381000Y-88250000D03*
D23*
X168096000Y-87750000D03*
D22*
X168381000Y-87750000D03*
D24*
X166021000Y-87325000D03*
D25*
X166021000Y-87325000D03*
D24*
X166021000Y-90175000D03*
D25*
X166021000Y-90175000D03*
D26*
X166121000Y-88250000D03*
X166121000Y-89250000D03*
D27*
X166186000Y-88190000D03*
X166186000Y-89310000D03*
D24*
X166421000Y-87325000D03*
D25*
X166421000Y-87325000D03*
D24*
X166421000Y-90175000D03*
D25*
X166421000Y-90175000D03*
D26*
X166621000Y-88750000D03*
D28*
X166621000Y-88750000D03*
D24*
X166821000Y-87325000D03*
D25*
X166821000Y-87325000D03*
D24*
X166821000Y-90175000D03*
D25*
X166821000Y-90175000D03*
D27*
X167056000Y-88190000D03*
X167056000Y-89310000D03*
D26*
X167121000Y-88250000D03*
X167121000Y-89250000D03*
D24*
X167221000Y-87325000D03*
D25*
X167221000Y-87325000D03*
D24*
X167221000Y-90175000D03*
D25*
X167221000Y-90175000D03*
%TD*%
D29*
%TO.C,R4*%
X158760624Y-85039376D03*
X158039376Y-85760624D03*
%TD*%
%TO.C,R5*%
X160286899Y-86565508D03*
X159565651Y-87286756D03*
%TD*%
D30*
%TO.C,R9*%
X143197500Y-94500000D03*
X142002500Y-94500000D03*
%TD*%
D12*
%TO.C,C15*%
X149640589Y-92639411D03*
X150319411Y-91960589D03*
%TD*%
D31*
%TO.C,C12*%
X173040000Y-88100000D03*
X173040000Y-87140000D03*
%TD*%
D32*
%TO.C,C5*%
X161021321Y-87187797D03*
X161700143Y-87866619D03*
%TD*%
D31*
%TO.C,C10*%
X170890000Y-88110000D03*
X170890000Y-87150000D03*
%TD*%
D33*
%TO.C,C2*%
X150889554Y-87177208D03*
X150210732Y-87856030D03*
%TD*%
D34*
%TO.C,U2*%
X154638406Y-85249176D03*
X154284853Y-85602729D03*
X153931299Y-85956283D03*
X153577746Y-86309836D03*
X153224193Y-86663390D03*
X152870639Y-87016943D03*
X152517086Y-87370496D03*
X152163533Y-87724050D03*
X151809979Y-88077603D03*
X151456426Y-88431156D03*
X151102872Y-88784710D03*
X150749319Y-89138263D03*
D35*
X150749319Y-90128213D03*
X151102872Y-90481766D03*
X151456426Y-90835320D03*
X151809979Y-91188873D03*
X152163533Y-91542426D03*
X152517086Y-91895980D03*
X152870639Y-92249533D03*
X153224193Y-92603086D03*
X153577746Y-92956640D03*
X153931299Y-93310193D03*
X154284853Y-93663747D03*
X154638406Y-94017300D03*
D34*
X155628356Y-94017300D03*
X155981909Y-93663747D03*
X156335463Y-93310193D03*
X156689016Y-92956640D03*
X157042569Y-92603086D03*
X157396123Y-92249533D03*
X157749676Y-91895980D03*
X158103229Y-91542426D03*
X158456783Y-91188873D03*
X158810336Y-90835320D03*
X159163890Y-90481766D03*
X159517443Y-90128213D03*
D35*
X159517443Y-89138263D03*
X159163890Y-88784710D03*
X158810336Y-88431156D03*
X158456783Y-88077603D03*
X158103229Y-87724050D03*
X157749676Y-87370496D03*
X157396123Y-87016943D03*
X157042569Y-86663390D03*
X156689016Y-86309836D03*
X156335463Y-85956283D03*
X155981909Y-85602729D03*
X155628356Y-85249176D03*
D36*
X155133381Y-89633238D03*
%TD*%
D31*
%TO.C,C11*%
X172000000Y-88100000D03*
X172000000Y-87140000D03*
%TD*%
D37*
%TO.C,R2*%
X173020000Y-90385000D03*
X173020000Y-89365000D03*
%TD*%
D30*
%TO.C,R7*%
X148297500Y-85800000D03*
X147102500Y-85800000D03*
%TD*%
D38*
%TO.C,U3*%
X175800000Y-99100000D03*
D39*
X176800000Y-99100000D03*
X177800000Y-99100000D03*
X178800000Y-99100000D03*
%TD*%
D30*
%TO.C,R6*%
X148297500Y-84700000D03*
X147102500Y-84700000D03*
%TD*%
D40*
%TO.C,IC1*%
X170312000Y-99205000D03*
X170312000Y-97935000D03*
X170312000Y-96665000D03*
X170312000Y-95395000D03*
X164888000Y-95395000D03*
X164888000Y-96665000D03*
X164888000Y-97935000D03*
X164888000Y-99205000D03*
%TD*%
D41*
%TO.C,L2*%
X165900000Y-85100000D03*
X167200000Y-85100000D03*
%TD*%
D42*
%TO.C,R1*%
X171920000Y-89365000D03*
X171920000Y-90385000D03*
%TD*%
D13*
%TO.C,C6*%
X160972792Y-88605887D03*
X160293970Y-87927065D03*
%TD*%
D43*
%TO.C,IC2*%
X151000000Y-95655025D03*
X150646446Y-95301472D03*
X150292893Y-94947918D03*
X149939340Y-94594365D03*
X149585786Y-94240812D03*
X149232233Y-93887258D03*
D44*
X148242283Y-93887258D03*
X147888730Y-94240812D03*
X147535176Y-94594365D03*
X147181623Y-94947918D03*
X146828070Y-95301472D03*
X146474516Y-95655025D03*
D43*
X146474516Y-96644975D03*
X146828070Y-96998528D03*
X147181623Y-97352082D03*
X147535176Y-97705635D03*
X147888730Y-98059188D03*
X148242283Y-98412742D03*
D44*
X149232233Y-98412742D03*
X149585786Y-98059188D03*
X149939340Y-97705635D03*
X150292893Y-97352082D03*
X150646446Y-96998528D03*
X151000000Y-96644975D03*
D45*
X148737258Y-96150000D03*
%TD*%
D46*
%TO.C,R3*%
X167160000Y-91450000D03*
X166140000Y-91450000D03*
%TD*%
D30*
%TO.C,R10*%
X143197500Y-95600000D03*
X142002500Y-95600000D03*
%TD*%
D33*
%TO.C,C4*%
X152678822Y-93921178D03*
X152000000Y-94600000D03*
%TD*%
D47*
%TO.C,L1*%
X161756990Y-86073466D03*
X160643296Y-84959772D03*
%TD*%
D48*
%TO.C,C13*%
X176720000Y-97400000D03*
X177680000Y-97400000D03*
%TD*%
D12*
%TO.C,C18*%
X147921178Y-92478822D03*
X148600000Y-91800000D03*
%TD*%
D49*
%TO.C,C14*%
X171530000Y-93900000D03*
X170570000Y-93900000D03*
%TD*%
D31*
%TO.C,C8*%
X169720000Y-90330000D03*
X169720000Y-89370000D03*
%TD*%
D12*
%TO.C,C16*%
X150360589Y-93339411D03*
X151039411Y-92660589D03*
%TD*%
D50*
%TO.C,S1*%
X176876000Y-92000000D03*
D51*
X176876000Y-90000000D03*
X176876000Y-88000000D03*
D52*
X176876000Y-94100000D03*
X176876000Y-85900000D03*
%TD*%
M02*
