%TF.GenerationSoftware,KiCad,Pcbnew,8.0.6*%
%TF.CreationDate,2025-01-20T01:55:32+01:00*%
%TF.ProjectId,Thermometer_CD_Project,54686572-6d6f-46d6-9574-65725f43445f,rev?*%
%TF.SameCoordinates,Original*%
%TF.FileFunction,Copper,L2,Bot*%
%TF.FilePolarity,Positive*%
%FSLAX46Y46*%
G04 Gerber Fmt 4.6, Leading zero omitted, Abs format (unit mm)*
G04 Created by KiCad (PCBNEW 8.0.6) date 2025-01-20 01:55:32*
%MOMM*%
%LPD*%
G01*
G04 APERTURE LIST*
G04 Aperture macros list*
%AMRoundRect*
0 Rectangle with rounded corners*
0 $1 Rounding radius*
0 $2 $3 $4 $5 $6 $7 $8 $9 X,Y pos of 4 corners*
0 Add a 4 corners polygon primitive as box body*
4,1,4,$2,$3,$4,$5,$6,$7,$8,$9,$2,$3,0*
0 Add four circle primitives for the rounded corners*
1,1,$1+$1,$2,$3*
1,1,$1+$1,$4,$5*
1,1,$1+$1,$6,$7*
1,1,$1+$1,$8,$9*
0 Add four rect primitives between the rounded corners*
20,1,$1+$1,$2,$3,$4,$5,0*
20,1,$1+$1,$4,$5,$6,$7,0*
20,1,$1+$1,$6,$7,$8,$9,0*
20,1,$1+$1,$8,$9,$2,$3,0*%
G04 Aperture macros list end*
%TA.AperFunction,ComponentPad*%
%ADD10C,1.560000*%
%TD*%
%TA.AperFunction,ComponentPad*%
%ADD11R,1.000000X1.000000*%
%TD*%
%TA.AperFunction,ComponentPad*%
%ADD12O,1.000000X1.000000*%
%TD*%
%TA.AperFunction,ComponentPad*%
%ADD13C,0.600000*%
%TD*%
%TA.AperFunction,SMDPad,CuDef*%
%ADD14R,2.300000X2.300000*%
%TD*%
%TA.AperFunction,ComponentPad*%
%ADD15R,0.850000X0.850000*%
%TD*%
%TA.AperFunction,ComponentPad*%
%ADD16O,0.850000X0.850000*%
%TD*%
%TA.AperFunction,ComponentPad*%
%ADD17R,1.300000X1.300000*%
%TD*%
%TA.AperFunction,ComponentPad*%
%ADD18C,1.300000*%
%TD*%
%TA.AperFunction,ComponentPad*%
%ADD19C,2.250000*%
%TD*%
%TA.AperFunction,SMDPad,CuDef*%
%ADD20RoundRect,0.750000X-0.750000X1.050000X-0.750000X-1.050000X0.750000X-1.050000X0.750000X1.050000X0*%
%TD*%
%TA.AperFunction,SMDPad,CuDef*%
%ADD21RoundRect,0.650000X-0.850000X0.650000X-0.850000X-0.650000X0.850000X-0.650000X0.850000X0.650000X0*%
%TD*%
%TA.AperFunction,ViaPad*%
%ADD22C,0.500000*%
%TD*%
%TA.AperFunction,Conductor*%
%ADD23C,0.200000*%
%TD*%
%TA.AperFunction,Conductor*%
%ADD24C,1.000000*%
%TD*%
G04 APERTURE END LIST*
D10*
%TO.P,J3,1,MH1*%
%TO.N,GND*%
X140300000Y-90600000D03*
%TO.P,J3,2,MH2*%
X140300000Y-85800000D03*
%TO.P,J3,3,MH3*%
X144600000Y-90600000D03*
%TO.P,J3,4,MH4*%
X144600000Y-85800000D03*
%TD*%
D11*
%TO.P,J1,1,Pin_1*%
%TO.N,/thermocouple/T+*%
X173400000Y-97430000D03*
D12*
%TO.P,J1,2,Pin_2*%
%TO.N,/thermocouple/T-*%
X173400000Y-98700000D03*
%TD*%
D13*
%TO.P,U4,11,PGND*%
%TO.N,GND*%
X166121000Y-88250000D03*
X166121000Y-89250000D03*
D14*
X166620000Y-88750000D03*
D13*
X166621000Y-88750000D03*
X167121000Y-88250000D03*
X167121000Y-89250000D03*
%TD*%
D15*
%TO.P,U3,1,VDD*%
%TO.N,+3V3*%
X175800000Y-99100000D03*
D16*
%TO.P,U3,2,SCL*%
%TO.N,Net-(U2-IO22)*%
X176800000Y-99100000D03*
%TO.P,U3,3,SDA*%
%TO.N,Net-(U2-IO21)*%
X177800000Y-99100000D03*
%TO.P,U3,4,GND*%
%TO.N,GND*%
X178800000Y-99100000D03*
%TD*%
D17*
%TO.P,S1,1,NO*%
%TO.N,Net-(S1-NO)*%
X176876000Y-92000000D03*
D18*
%TO.P,S1,2,COM*%
%TO.N,Net-(S1-COM)*%
X176876000Y-90000000D03*
%TO.P,S1,3,NC*%
%TO.N,unconnected-(S1-NC-Pad3)*%
X176876000Y-88000000D03*
D19*
%TO.P,S1,4,MH1*%
%TO.N,unconnected-(S1-MH1-Pad4)*%
X176876000Y-94100000D03*
%TO.P,S1,5,MH2*%
%TO.N,unconnected-(S1-MH2-Pad5)*%
X176876000Y-85900000D03*
%TD*%
D20*
%TO.P,J2,1,1*%
%TO.N,Net-(S1-NO)*%
X171850000Y-92000000D03*
D21*
%TO.P,J2,2,2*%
%TO.N,GND*%
X150550000Y-92000000D03*
%TD*%
D22*
%TO.N,GND*%
X148300000Y-95700000D03*
X147300000Y-90300000D03*
X149683381Y-88383381D03*
X155600000Y-90100000D03*
X142900000Y-99200000D03*
X148300000Y-96700000D03*
X155600000Y-89100000D03*
X150319411Y-91960589D03*
X155600000Y-91100000D03*
X156600000Y-89100000D03*
X169400000Y-93900000D03*
X161300000Y-89700000D03*
X154600000Y-88100000D03*
X154600000Y-91100000D03*
X155600000Y-88100000D03*
X153600000Y-90100000D03*
X154600000Y-90100000D03*
X152200000Y-95400000D03*
X156600000Y-90100000D03*
X153600000Y-89100000D03*
X154600000Y-89100000D03*
X149300000Y-96700000D03*
X174435000Y-89365000D03*
X149300000Y-95700000D03*
%TO.N,+3V3*%
X144500000Y-95900000D03*
X168300000Y-91650000D03*
X169950000Y-88150000D03*
X162100000Y-87100000D03*
X148882034Y-93315810D03*
%TO.N,Net-(U2-IO22)*%
X159600000Y-85539376D03*
%TO.N,/PwrG*%
X153300000Y-94500000D03*
X166140000Y-93060000D03*
%TO.N,/MAX_SO*%
X159000000Y-92200000D03*
X160919599Y-96019599D03*
X158400000Y-93500000D03*
X162800000Y-97900000D03*
%TO.N,Net-(U2-IO21)*%
X157600000Y-85300000D03*
%TO.N,Net-(S1-COM)*%
X163000000Y-88700000D03*
%TO.N,VBUS*%
X143500000Y-97600000D03*
X143200000Y-93800000D03*
%TO.N,/connectors/D-*%
X140300000Y-87700000D03*
X145400000Y-97800000D03*
X150902046Y-93839411D03*
X141700000Y-98400000D03*
%TO.N,/connectors/D+*%
X151600000Y-93839411D03*
X144335000Y-87987500D03*
X141800000Y-97600000D03*
X140293947Y-88492433D03*
%TO.N,/RXD_USB*%
X158800000Y-86100000D03*
X153850000Y-96750000D03*
%TO.N,/TXD_USB*%
X154450000Y-95350000D03*
X159000000Y-86800000D03*
%TO.N,Net-(J3-CC1)*%
X140700000Y-89000000D03*
X147102500Y-84700000D03*
%TD*%
D23*
%TO.N,+3V3*%
X164700000Y-84500000D02*
X162100000Y-87100000D01*
X169950000Y-87170000D02*
X167280000Y-84500000D01*
X169950000Y-88150000D02*
X169950000Y-87170000D01*
X169950000Y-88150000D02*
X169950000Y-88650000D01*
X167280000Y-84500000D02*
X164700000Y-84500000D01*
X169950000Y-88650000D02*
X168300000Y-90300000D01*
X148882034Y-93315810D02*
X147084190Y-93315810D01*
X147084190Y-93315810D02*
X144500000Y-95900000D01*
X168300000Y-90300000D02*
X168300000Y-91650000D01*
%TO.N,Net-(U2-IO22)*%
X160150000Y-84150000D02*
X178050000Y-84150000D01*
X179000000Y-96500000D02*
X176800000Y-98700000D01*
X159600000Y-85539376D02*
X159600000Y-84700000D01*
X176800000Y-98700000D02*
X176800000Y-99100000D01*
X159600000Y-84700000D02*
X160150000Y-84150000D01*
X178050000Y-84150000D02*
X179000000Y-85100000D01*
X179000000Y-85100000D02*
X179000000Y-96500000D01*
%TO.N,/PwrG*%
X165200000Y-94000000D02*
X161700000Y-94000000D01*
X157400000Y-98300000D02*
X154000000Y-98300000D01*
X166140000Y-93060000D02*
X165200000Y-94000000D01*
X161700000Y-94000000D02*
X157400000Y-98300000D01*
X154000000Y-98300000D02*
X153300000Y-97600000D01*
X153300000Y-97600000D02*
X153300000Y-94500000D01*
%TO.N,/MAX_SO*%
X158400000Y-93500000D02*
X159000000Y-92900000D01*
X159000000Y-92900000D02*
X159000000Y-92200000D01*
X162800000Y-97900000D02*
X160919599Y-96019599D01*
%TO.N,Net-(U2-IO21)*%
X159100000Y-83800000D02*
X178200000Y-83800000D01*
X179400000Y-96594975D02*
X177800000Y-98194975D01*
X177800000Y-98194975D02*
X177800000Y-99100000D01*
X157600000Y-85300000D02*
X159100000Y-83800000D01*
X179400000Y-85000000D02*
X179400000Y-96594975D01*
X178200000Y-83800000D02*
X179400000Y-85000000D01*
%TO.N,Net-(S1-COM)*%
X165745000Y-92150000D02*
X168700000Y-92150000D01*
X163000000Y-88745000D02*
X163000000Y-88700000D01*
X163000000Y-89405000D02*
X165745000Y-92150000D01*
X169000000Y-90500000D02*
X170300000Y-89200000D01*
X169000000Y-91850000D02*
X169000000Y-90500000D01*
X173350000Y-89200000D02*
X174150000Y-90000000D01*
X168700000Y-92150000D02*
X169000000Y-91850000D01*
X174150000Y-90000000D02*
X176876000Y-90000000D01*
X163000000Y-88700000D02*
X163000000Y-89405000D01*
X170300000Y-89200000D02*
X173350000Y-89200000D01*
D24*
%TO.N,Net-(S1-NO)*%
X176876000Y-92000000D02*
X172900000Y-92000000D01*
D23*
%TO.N,VBUS*%
X143200000Y-97300000D02*
X143500000Y-97600000D01*
X143200000Y-93800000D02*
X143200000Y-97300000D01*
%TO.N,/connectors/D-*%
X149360589Y-93839411D02*
X145400000Y-97800000D01*
X139650000Y-96350000D02*
X139650000Y-91901614D01*
X139650000Y-91901614D02*
X138920000Y-91171614D01*
X139793947Y-89154439D02*
X139793947Y-88206053D01*
X139793947Y-88206053D02*
X140300000Y-87700000D01*
X141700000Y-98400000D02*
X139650000Y-96350000D01*
X138920000Y-91171614D02*
X138920000Y-90028386D01*
X150902046Y-93839411D02*
X149360589Y-93839411D01*
X138920000Y-90028386D02*
X139793947Y-89154439D01*
%TO.N,/connectors/D+*%
X151600000Y-93907107D02*
X151600000Y-93839411D01*
X140293947Y-88492433D02*
X140293947Y-88698946D01*
X143822500Y-88500000D02*
X144335000Y-87987500D01*
X140293947Y-88698946D02*
X140200000Y-88792893D01*
X140293947Y-88492433D02*
X140301514Y-88500000D01*
X139270000Y-90173360D02*
X139270000Y-91026640D01*
X142600000Y-98400000D02*
X149500000Y-98400000D01*
X140000000Y-95800000D02*
X141800000Y-97600000D01*
X151107107Y-96792893D02*
X151107107Y-94400000D01*
X140200000Y-89243360D02*
X139270000Y-90173360D01*
X151107107Y-94400000D02*
X151600000Y-93907107D01*
X140000000Y-91756640D02*
X140000000Y-95800000D01*
X141800000Y-97600000D02*
X142600000Y-98400000D01*
X140301514Y-88500000D02*
X143822500Y-88500000D01*
X149500000Y-98400000D02*
X151107107Y-96792893D01*
X139270000Y-91026640D02*
X140000000Y-91756640D01*
X140200000Y-88792893D02*
X140200000Y-89243360D01*
%TO.N,/RXD_USB*%
X157328229Y-87571771D02*
X158800000Y-86100000D01*
X153850000Y-96750000D02*
X153850000Y-95242893D01*
X153850000Y-95242893D02*
X157328229Y-91764664D01*
X157328229Y-91764664D02*
X157328229Y-87571771D01*
%TO.N,/TXD_USB*%
X154450000Y-95350000D02*
X157678229Y-92121771D01*
X157678229Y-92121771D02*
X157678229Y-88121771D01*
X157678229Y-88121771D02*
X159000000Y-86800000D01*
%TO.N,Net-(J3-CC1)*%
X147102500Y-85927107D02*
X147102500Y-84700000D01*
X140700000Y-89000000D02*
X144029607Y-89000000D01*
X144029607Y-89000000D02*
X147102500Y-85927107D01*
%TD*%
%TA.AperFunction,Conductor*%
%TO.N,GND*%
G36*
X163367942Y-84770185D02*
G01*
X163413697Y-84822989D01*
X163423641Y-84892147D01*
X163394616Y-84955703D01*
X163388584Y-84962181D01*
X162024759Y-86326004D01*
X161963436Y-86359489D01*
X161950966Y-86361543D01*
X161942673Y-86362477D01*
X161931941Y-86363687D01*
X161931940Y-86363687D01*
X161772307Y-86419544D01*
X161772302Y-86419547D01*
X161629115Y-86509518D01*
X161629109Y-86509523D01*
X161509523Y-86629109D01*
X161509518Y-86629115D01*
X161419547Y-86772302D01*
X161419545Y-86772305D01*
X161363685Y-86931943D01*
X161344751Y-87099997D01*
X161344751Y-87100000D01*
X161363685Y-87268056D01*
X161419545Y-87427694D01*
X161419547Y-87427697D01*
X161509518Y-87570884D01*
X161509523Y-87570890D01*
X161629109Y-87690476D01*
X161629115Y-87690481D01*
X161772302Y-87780452D01*
X161772305Y-87780454D01*
X161772309Y-87780455D01*
X161772310Y-87780456D01*
X161792981Y-87787689D01*
X161931943Y-87836314D01*
X162099997Y-87855249D01*
X162100000Y-87855249D01*
X162100003Y-87855249D01*
X162268056Y-87836314D01*
X162268059Y-87836313D01*
X162427690Y-87780456D01*
X162427692Y-87780454D01*
X162427694Y-87780454D01*
X162427697Y-87780452D01*
X162570884Y-87690481D01*
X162570885Y-87690480D01*
X162570890Y-87690477D01*
X162690477Y-87570890D01*
X162690481Y-87570884D01*
X162702249Y-87552155D01*
X164970000Y-87552155D01*
X164970000Y-88500000D01*
X165517446Y-88500000D01*
X165517446Y-88499999D01*
X165797283Y-88220163D01*
X165971000Y-88220163D01*
X165971000Y-88279837D01*
X165993836Y-88334968D01*
X166036032Y-88377164D01*
X166091163Y-88400000D01*
X166150837Y-88400000D01*
X166205968Y-88377164D01*
X166248164Y-88334968D01*
X166271000Y-88279837D01*
X166271000Y-88220163D01*
X166971000Y-88220163D01*
X166971000Y-88279837D01*
X166993836Y-88334968D01*
X167036032Y-88377164D01*
X167091163Y-88400000D01*
X167150837Y-88400000D01*
X167205968Y-88377164D01*
X167248164Y-88334968D01*
X167271000Y-88279837D01*
X167271000Y-88220163D01*
X167248164Y-88165032D01*
X167205968Y-88122836D01*
X167150837Y-88100000D01*
X167091163Y-88100000D01*
X167036032Y-88122836D01*
X166993836Y-88165032D01*
X166971000Y-88220163D01*
X166271000Y-88220163D01*
X166248164Y-88165032D01*
X166205968Y-88122836D01*
X166150837Y-88100000D01*
X166091163Y-88100000D01*
X166036032Y-88122836D01*
X165993836Y-88165032D01*
X165971000Y-88220163D01*
X165797283Y-88220163D01*
X166121000Y-87896447D01*
X166369999Y-87647446D01*
X166370000Y-87647445D01*
X166370000Y-87645446D01*
X166870000Y-87645446D01*
X167121000Y-87896447D01*
X167724553Y-88499999D01*
X167724554Y-88500000D01*
X168270000Y-88500000D01*
X168270000Y-87552172D01*
X168269999Y-87552155D01*
X168263598Y-87492627D01*
X168263596Y-87492620D01*
X168213354Y-87357913D01*
X168213350Y-87357906D01*
X168127190Y-87242812D01*
X168127187Y-87242809D01*
X168012093Y-87156649D01*
X168012086Y-87156645D01*
X167877379Y-87106403D01*
X167877372Y-87106401D01*
X167817844Y-87100000D01*
X166870000Y-87100000D01*
X166870000Y-87645446D01*
X166370000Y-87645446D01*
X166370000Y-87100000D01*
X165422155Y-87100000D01*
X165362627Y-87106401D01*
X165362620Y-87106403D01*
X165227913Y-87156645D01*
X165227906Y-87156649D01*
X165112812Y-87242809D01*
X165112809Y-87242812D01*
X165026649Y-87357906D01*
X165026645Y-87357913D01*
X164976403Y-87492620D01*
X164976401Y-87492627D01*
X164970000Y-87552155D01*
X162702249Y-87552155D01*
X162780452Y-87427697D01*
X162780455Y-87427691D01*
X162780456Y-87427690D01*
X162836313Y-87268059D01*
X162838456Y-87249037D01*
X162865519Y-87184625D01*
X162873985Y-87175248D01*
X164912416Y-85136819D01*
X164973739Y-85103334D01*
X165000097Y-85100500D01*
X166979903Y-85100500D01*
X167046942Y-85120185D01*
X167067584Y-85136819D01*
X169313181Y-87382416D01*
X169346666Y-87443739D01*
X169349500Y-87470097D01*
X169349500Y-87659336D01*
X169330494Y-87725308D01*
X169269545Y-87822307D01*
X169213685Y-87981943D01*
X169194751Y-88149997D01*
X169194751Y-88150002D01*
X169213686Y-88318059D01*
X169213686Y-88318061D01*
X169244725Y-88406762D01*
X169248287Y-88476541D01*
X169215365Y-88535398D01*
X168481681Y-89269083D01*
X168420358Y-89302568D01*
X168350667Y-89297584D01*
X168294733Y-89255712D01*
X168270316Y-89190248D01*
X168270000Y-89181402D01*
X168270000Y-89000000D01*
X167724553Y-89000000D01*
X167121000Y-89603553D01*
X166870000Y-89854552D01*
X166870000Y-90400000D01*
X167575500Y-90400000D01*
X167642539Y-90419685D01*
X167688294Y-90472489D01*
X167699500Y-90524000D01*
X167699500Y-91159336D01*
X167680494Y-91225308D01*
X167619544Y-91322308D01*
X167569106Y-91466454D01*
X167528384Y-91523231D01*
X167463431Y-91548978D01*
X167452064Y-91549500D01*
X166045097Y-91549500D01*
X165978058Y-91529815D01*
X165957416Y-91513181D01*
X164392079Y-89947844D01*
X164970000Y-89947844D01*
X164976401Y-90007372D01*
X164976403Y-90007379D01*
X165026645Y-90142086D01*
X165026649Y-90142093D01*
X165112809Y-90257187D01*
X165112812Y-90257190D01*
X165227906Y-90343350D01*
X165227913Y-90343354D01*
X165362620Y-90393596D01*
X165362627Y-90393598D01*
X165422155Y-90399999D01*
X165422172Y-90400000D01*
X166370000Y-90400000D01*
X166370000Y-89852553D01*
X166121000Y-89603553D01*
X165737609Y-89220163D01*
X165971000Y-89220163D01*
X165971000Y-89279837D01*
X165993836Y-89334968D01*
X166036032Y-89377164D01*
X166091163Y-89400000D01*
X166150837Y-89400000D01*
X166205968Y-89377164D01*
X166248164Y-89334968D01*
X166271000Y-89279837D01*
X166271000Y-89220163D01*
X166971000Y-89220163D01*
X166971000Y-89279837D01*
X166993836Y-89334968D01*
X167036032Y-89377164D01*
X167091163Y-89400000D01*
X167150837Y-89400000D01*
X167205968Y-89377164D01*
X167248164Y-89334968D01*
X167271000Y-89279837D01*
X167271000Y-89220163D01*
X167248164Y-89165032D01*
X167205968Y-89122836D01*
X167150837Y-89100000D01*
X167091163Y-89100000D01*
X167036032Y-89122836D01*
X166993836Y-89165032D01*
X166971000Y-89220163D01*
X166271000Y-89220163D01*
X166248164Y-89165032D01*
X166205968Y-89122836D01*
X166150837Y-89100000D01*
X166091163Y-89100000D01*
X166036032Y-89122836D01*
X165993836Y-89165032D01*
X165971000Y-89220163D01*
X165737609Y-89220163D01*
X165517446Y-89000000D01*
X164970000Y-89000000D01*
X164970000Y-89947844D01*
X164392079Y-89947844D01*
X163669911Y-89225676D01*
X163636426Y-89164353D01*
X163641410Y-89094661D01*
X163652595Y-89072030D01*
X163680456Y-89027690D01*
X163736313Y-88868059D01*
X163752977Y-88720163D01*
X166471000Y-88720163D01*
X166471000Y-88779837D01*
X166493836Y-88834968D01*
X166536032Y-88877164D01*
X166591163Y-88900000D01*
X166650837Y-88900000D01*
X166705968Y-88877164D01*
X166748164Y-88834968D01*
X166771000Y-88779837D01*
X166771000Y-88720163D01*
X166748164Y-88665032D01*
X166705968Y-88622836D01*
X166650837Y-88600000D01*
X166591163Y-88600000D01*
X166536032Y-88622836D01*
X166493836Y-88665032D01*
X166471000Y-88720163D01*
X163752977Y-88720163D01*
X163755249Y-88700000D01*
X163749531Y-88649250D01*
X163736314Y-88531943D01*
X163680454Y-88372305D01*
X163680452Y-88372302D01*
X163590481Y-88229115D01*
X163590476Y-88229109D01*
X163470890Y-88109523D01*
X163470884Y-88109518D01*
X163327697Y-88019547D01*
X163327694Y-88019545D01*
X163168056Y-87963685D01*
X163000003Y-87944751D01*
X162999997Y-87944751D01*
X162831943Y-87963685D01*
X162672305Y-88019545D01*
X162672302Y-88019547D01*
X162529115Y-88109518D01*
X162529109Y-88109523D01*
X162409523Y-88229109D01*
X162409518Y-88229115D01*
X162319547Y-88372302D01*
X162319545Y-88372305D01*
X162263685Y-88531943D01*
X162244751Y-88699997D01*
X162244751Y-88700002D01*
X162263686Y-88868057D01*
X162319544Y-89027690D01*
X162380493Y-89124689D01*
X162399500Y-89190662D01*
X162399500Y-89318330D01*
X162399499Y-89318348D01*
X162399499Y-89484054D01*
X162399498Y-89484054D01*
X162440423Y-89636786D01*
X162453634Y-89659666D01*
X162453635Y-89659671D01*
X162453636Y-89659671D01*
X162519475Y-89773709D01*
X162519481Y-89773717D01*
X162638349Y-89892585D01*
X162638355Y-89892590D01*
X165260139Y-92514374D01*
X165260149Y-92514385D01*
X165264479Y-92518715D01*
X165264480Y-92518716D01*
X165376284Y-92630520D01*
X165376286Y-92630521D01*
X165376287Y-92630522D01*
X165386208Y-92636250D01*
X165434424Y-92686817D01*
X165447647Y-92755424D01*
X165441250Y-92784591D01*
X165403687Y-92891940D01*
X165403687Y-92891942D01*
X165401543Y-92910966D01*
X165374473Y-92975379D01*
X165366005Y-92984758D01*
X164987582Y-93363182D01*
X164926262Y-93396666D01*
X164899903Y-93399500D01*
X161779057Y-93399500D01*
X161620942Y-93399500D01*
X161468215Y-93440423D01*
X161442050Y-93455529D01*
X161435038Y-93459578D01*
X161435037Y-93459577D01*
X161331287Y-93519477D01*
X161331282Y-93519481D01*
X161266139Y-93584625D01*
X161219480Y-93631284D01*
X161219478Y-93631286D01*
X159200043Y-95650722D01*
X157187584Y-97663181D01*
X157126261Y-97696666D01*
X157099903Y-97699500D01*
X154300097Y-97699500D01*
X154233058Y-97679815D01*
X154212416Y-97663181D01*
X154166043Y-97616808D01*
X154132558Y-97555485D01*
X154137542Y-97485793D01*
X154179414Y-97429860D01*
X154187741Y-97424139D01*
X154320890Y-97340477D01*
X154440477Y-97220890D01*
X154441323Y-97219544D01*
X154530452Y-97077697D01*
X154530454Y-97077694D01*
X154530454Y-97077692D01*
X154530456Y-97077690D01*
X154586313Y-96918059D01*
X154586313Y-96918058D01*
X154586314Y-96918056D01*
X154605249Y-96750002D01*
X154605249Y-96749997D01*
X154586314Y-96581943D01*
X154563209Y-96515913D01*
X154530456Y-96422310D01*
X154483317Y-96347289D01*
X154469506Y-96325308D01*
X154450500Y-96259336D01*
X154450500Y-96216005D01*
X154470185Y-96148966D01*
X154522989Y-96103211D01*
X154560618Y-96092785D01*
X154618056Y-96086314D01*
X154670226Y-96068059D01*
X154777690Y-96030456D01*
X154777693Y-96030453D01*
X154777697Y-96030452D01*
X154920884Y-95940481D01*
X154920885Y-95940480D01*
X154920890Y-95940477D01*
X155040477Y-95820890D01*
X155097257Y-95730526D01*
X155130452Y-95677697D01*
X155130455Y-95677691D01*
X155130456Y-95677690D01*
X155186313Y-95518059D01*
X155188456Y-95499037D01*
X155215519Y-95434625D01*
X155223985Y-95425248D01*
X157465982Y-93183251D01*
X157527303Y-93149768D01*
X157596995Y-93154752D01*
X157652928Y-93196624D01*
X157677345Y-93262088D01*
X157670703Y-93311887D01*
X157663686Y-93331940D01*
X157644751Y-93499997D01*
X157644751Y-93500002D01*
X157663685Y-93668056D01*
X157719545Y-93827694D01*
X157719547Y-93827697D01*
X157809518Y-93970884D01*
X157809523Y-93970890D01*
X157929109Y-94090476D01*
X157929115Y-94090481D01*
X158072302Y-94180452D01*
X158072305Y-94180454D01*
X158072309Y-94180455D01*
X158072310Y-94180456D01*
X158144913Y-94205860D01*
X158231943Y-94236314D01*
X158399997Y-94255249D01*
X158400000Y-94255249D01*
X158400003Y-94255249D01*
X158568056Y-94236314D01*
X158571537Y-94235096D01*
X158727690Y-94180456D01*
X158727692Y-94180454D01*
X158727694Y-94180454D01*
X158727697Y-94180452D01*
X158870884Y-94090481D01*
X158870885Y-94090480D01*
X158870890Y-94090477D01*
X158990477Y-93970890D01*
X159022988Y-93919149D01*
X159080452Y-93827697D01*
X159080455Y-93827691D01*
X159080456Y-93827690D01*
X159136313Y-93668059D01*
X159138456Y-93649037D01*
X159165519Y-93584625D01*
X159173985Y-93575248D01*
X159358506Y-93390728D01*
X159358511Y-93390724D01*
X159368714Y-93380520D01*
X159368716Y-93380520D01*
X159480520Y-93268716D01*
X159543890Y-93158955D01*
X159559577Y-93131785D01*
X159600500Y-92979057D01*
X159600500Y-92820943D01*
X159600500Y-92690662D01*
X159619507Y-92624689D01*
X159633580Y-92602292D01*
X159680456Y-92527690D01*
X159736313Y-92368059D01*
X159753140Y-92218716D01*
X159755249Y-92200002D01*
X159755249Y-92199997D01*
X159736314Y-92031943D01*
X159704066Y-91939783D01*
X159680456Y-91872310D01*
X159680455Y-91872309D01*
X159680454Y-91872305D01*
X159680452Y-91872302D01*
X159590481Y-91729115D01*
X159590476Y-91729109D01*
X159470890Y-91609523D01*
X159470884Y-91609518D01*
X159327697Y-91519547D01*
X159327694Y-91519545D01*
X159168056Y-91463685D01*
X159000003Y-91444751D01*
X158999997Y-91444751D01*
X158831943Y-91463685D01*
X158672305Y-91519545D01*
X158672302Y-91519547D01*
X158529115Y-91609518D01*
X158529109Y-91609523D01*
X158490410Y-91648223D01*
X158429087Y-91681708D01*
X158359395Y-91676724D01*
X158303462Y-91634852D01*
X158279045Y-91569388D01*
X158278729Y-91560542D01*
X158278729Y-88421867D01*
X158298414Y-88354828D01*
X158315044Y-88334190D01*
X159075240Y-87573993D01*
X159136561Y-87540510D01*
X159149024Y-87538457D01*
X159168059Y-87536313D01*
X159327690Y-87480456D01*
X159327693Y-87480453D01*
X159327697Y-87480452D01*
X159470884Y-87390481D01*
X159470885Y-87390480D01*
X159470890Y-87390477D01*
X159590477Y-87270890D01*
X159599184Y-87257033D01*
X159680452Y-87127697D01*
X159680454Y-87127694D01*
X159680454Y-87127692D01*
X159680456Y-87127690D01*
X159736313Y-86968059D01*
X159736313Y-86968058D01*
X159736314Y-86968056D01*
X159755249Y-86800002D01*
X159755249Y-86799997D01*
X159736314Y-86631943D01*
X159693477Y-86509523D01*
X159680456Y-86472310D01*
X159675865Y-86465003D01*
X159656865Y-86397766D01*
X159677233Y-86330931D01*
X159730501Y-86285717D01*
X159761297Y-86277354D01*
X159761271Y-86277239D01*
X159764098Y-86276593D01*
X159766983Y-86275810D01*
X159768059Y-86275689D01*
X159927690Y-86219832D01*
X159927692Y-86219830D01*
X159927694Y-86219830D01*
X159927697Y-86219828D01*
X160070884Y-86129857D01*
X160070885Y-86129856D01*
X160070890Y-86129853D01*
X160190477Y-86010266D01*
X160190481Y-86010260D01*
X160280452Y-85867073D01*
X160280454Y-85867070D01*
X160280454Y-85867068D01*
X160280456Y-85867066D01*
X160336313Y-85707435D01*
X160336313Y-85707434D01*
X160336314Y-85707432D01*
X160355249Y-85539378D01*
X160355249Y-85539373D01*
X160336314Y-85371319D01*
X160304360Y-85280000D01*
X160280456Y-85211686D01*
X160247827Y-85159757D01*
X160219506Y-85114684D01*
X160200500Y-85048712D01*
X160200500Y-85000097D01*
X160220185Y-84933058D01*
X160236819Y-84912416D01*
X160362416Y-84786819D01*
X160423739Y-84753334D01*
X160450097Y-84750500D01*
X163300903Y-84750500D01*
X163367942Y-84770185D01*
G37*
%TD.AperFunction*%
%TA.AperFunction,Conductor*%
G36*
X175519605Y-84770185D02*
G01*
X175565360Y-84822989D01*
X175575304Y-84892147D01*
X175558293Y-84939290D01*
X175423190Y-85159757D01*
X175423188Y-85159760D01*
X175325279Y-85396135D01*
X175298057Y-85509523D01*
X175269686Y-85627697D01*
X175265547Y-85644935D01*
X175245474Y-85900000D01*
X175265547Y-86155064D01*
X175265547Y-86155067D01*
X175265548Y-86155070D01*
X175315633Y-86363687D01*
X175325279Y-86403864D01*
X175423188Y-86640239D01*
X175423190Y-86640242D01*
X175556875Y-86858396D01*
X175556878Y-86858401D01*
X175723044Y-87052956D01*
X175893486Y-87198527D01*
X175931680Y-87257033D01*
X175932179Y-87326901D01*
X175911910Y-87367542D01*
X175893634Y-87391743D01*
X175798596Y-87582605D01*
X175798596Y-87582607D01*
X175740244Y-87787689D01*
X175731708Y-87879815D01*
X175720571Y-88000000D01*
X175740244Y-88212310D01*
X175785766Y-88372302D01*
X175798596Y-88417392D01*
X175798596Y-88417394D01*
X175893632Y-88608253D01*
X176022127Y-88778406D01*
X176164682Y-88908363D01*
X176200963Y-88968075D01*
X176199202Y-89037922D01*
X176164682Y-89091637D01*
X176022127Y-89221593D01*
X175924987Y-89350227D01*
X175868878Y-89391863D01*
X175826033Y-89399500D01*
X174450097Y-89399500D01*
X174383058Y-89379815D01*
X174362416Y-89363181D01*
X173837590Y-88838355D01*
X173837588Y-88838352D01*
X173718717Y-88719481D01*
X173718709Y-88719475D01*
X173597076Y-88649251D01*
X173597073Y-88649250D01*
X173581785Y-88640423D01*
X173429057Y-88599499D01*
X173270943Y-88599499D01*
X173263347Y-88599499D01*
X173263331Y-88599500D01*
X170762595Y-88599500D01*
X170695556Y-88579815D01*
X170649801Y-88527011D01*
X170639857Y-88457853D01*
X170645553Y-88434546D01*
X170667330Y-88372310D01*
X170686313Y-88318059D01*
X170705249Y-88150000D01*
X170705249Y-88149997D01*
X170686314Y-87981943D01*
X170672904Y-87943621D01*
X170630456Y-87822310D01*
X170569646Y-87725531D01*
X170569506Y-87725308D01*
X170550500Y-87659336D01*
X170550500Y-87090943D01*
X170550499Y-87090939D01*
X170548349Y-87082917D01*
X170540322Y-87052956D01*
X170509577Y-86938215D01*
X170458357Y-86849500D01*
X170430520Y-86801284D01*
X170318716Y-86689480D01*
X170318715Y-86689479D01*
X170314385Y-86685149D01*
X170314374Y-86685139D01*
X168591416Y-84962181D01*
X168557931Y-84900858D01*
X168562915Y-84831166D01*
X168604787Y-84775233D01*
X168670251Y-84750816D01*
X168679097Y-84750500D01*
X175452566Y-84750500D01*
X175519605Y-84770185D01*
G37*
%TD.AperFunction*%
%TA.AperFunction,Conductor*%
G36*
X180392539Y-82770185D02*
G01*
X180438294Y-82822989D01*
X180449500Y-82874500D01*
X180449500Y-100625500D01*
X180429815Y-100692539D01*
X180377011Y-100738294D01*
X180325500Y-100749500D01*
X138574500Y-100749500D01*
X138507461Y-100729815D01*
X138461706Y-100677011D01*
X138450500Y-100625500D01*
X138450500Y-91850711D01*
X138470185Y-91783672D01*
X138522989Y-91737917D01*
X138592147Y-91727973D01*
X138655703Y-91756998D01*
X138662181Y-91763030D01*
X139013181Y-92114030D01*
X139046666Y-92175353D01*
X139049500Y-92201711D01*
X139049500Y-96263330D01*
X139049499Y-96263348D01*
X139049499Y-96429054D01*
X139049498Y-96429054D01*
X139059804Y-96467516D01*
X139090423Y-96581785D01*
X139090424Y-96581787D01*
X139090423Y-96581787D01*
X139103538Y-96604501D01*
X139103539Y-96604503D01*
X139169475Y-96718709D01*
X139169481Y-96718717D01*
X139288349Y-96837585D01*
X139288355Y-96837590D01*
X140926004Y-98475240D01*
X140959489Y-98536563D01*
X140961543Y-98549033D01*
X140963687Y-98568057D01*
X140963687Y-98568059D01*
X141019544Y-98727692D01*
X141019547Y-98727697D01*
X141109518Y-98870884D01*
X141109523Y-98870890D01*
X141229109Y-98990476D01*
X141229115Y-98990481D01*
X141372302Y-99080452D01*
X141372305Y-99080454D01*
X141372309Y-99080455D01*
X141372310Y-99080456D01*
X141428161Y-99099999D01*
X141531943Y-99136314D01*
X141699997Y-99155249D01*
X141700000Y-99155249D01*
X141700003Y-99155249D01*
X141868056Y-99136314D01*
X141868059Y-99136313D01*
X142027690Y-99080456D01*
X142170890Y-98990477D01*
X142195425Y-98965941D01*
X142256747Y-98932456D01*
X142326439Y-98937439D01*
X142345107Y-98946235D01*
X142368215Y-98959577D01*
X142520943Y-99000501D01*
X142520946Y-99000501D01*
X142686653Y-99000501D01*
X142686669Y-99000500D01*
X149413331Y-99000500D01*
X149413347Y-99000501D01*
X149420943Y-99000501D01*
X149579054Y-99000501D01*
X149579057Y-99000501D01*
X149731785Y-98959577D01*
X149781904Y-98930639D01*
X149868716Y-98880520D01*
X149980520Y-98768716D01*
X149980520Y-98768714D01*
X149990728Y-98758507D01*
X149990729Y-98758504D01*
X151587627Y-97161609D01*
X151666684Y-97024677D01*
X151707608Y-96871950D01*
X151707608Y-96713835D01*
X151707608Y-96706240D01*
X151707607Y-96706222D01*
X151707607Y-94700097D01*
X151727292Y-94633058D01*
X151743926Y-94612416D01*
X151767365Y-94588977D01*
X151814092Y-94559616D01*
X151927690Y-94519867D01*
X151927692Y-94519866D01*
X151927697Y-94519863D01*
X151959313Y-94499997D01*
X152544751Y-94499997D01*
X152544751Y-94500002D01*
X152563686Y-94668057D01*
X152619544Y-94827690D01*
X152680493Y-94924689D01*
X152699500Y-94990662D01*
X152699500Y-97513330D01*
X152699499Y-97513348D01*
X152699499Y-97679054D01*
X152699498Y-97679054D01*
X152699499Y-97679057D01*
X152740423Y-97831785D01*
X152740424Y-97831786D01*
X152756468Y-97859577D01*
X152756469Y-97859578D01*
X152819475Y-97968709D01*
X152819481Y-97968717D01*
X152938349Y-98087585D01*
X152938355Y-98087590D01*
X153515139Y-98664374D01*
X153515149Y-98664385D01*
X153519479Y-98668715D01*
X153519480Y-98668716D01*
X153631284Y-98780520D01*
X153631286Y-98780521D01*
X153631290Y-98780524D01*
X153751626Y-98849999D01*
X153768216Y-98859577D01*
X153848493Y-98881087D01*
X153920942Y-98900500D01*
X153920943Y-98900500D01*
X157313331Y-98900500D01*
X157313347Y-98900501D01*
X157320943Y-98900501D01*
X157479054Y-98900501D01*
X157479057Y-98900501D01*
X157631785Y-98859577D01*
X157681904Y-98830639D01*
X157768716Y-98780520D01*
X157849236Y-98700000D01*
X172394659Y-98700000D01*
X172413975Y-98896129D01*
X172413976Y-98896132D01*
X172469890Y-99080456D01*
X172471188Y-99084733D01*
X172564086Y-99258532D01*
X172564090Y-99258539D01*
X172689116Y-99410883D01*
X172841460Y-99535909D01*
X172841467Y-99535913D01*
X173015266Y-99628811D01*
X173015269Y-99628811D01*
X173015273Y-99628814D01*
X173203868Y-99686024D01*
X173400000Y-99705341D01*
X173596132Y-99686024D01*
X173784727Y-99628814D01*
X173958538Y-99535910D01*
X174110883Y-99410883D01*
X174235910Y-99258538D01*
X174301241Y-99136313D01*
X174328811Y-99084733D01*
X174328811Y-99084732D01*
X174328814Y-99084727D01*
X174386024Y-98896132D01*
X174405341Y-98700000D01*
X174386024Y-98503868D01*
X174328814Y-98315273D01*
X174327677Y-98313146D01*
X174327418Y-98311904D01*
X174326483Y-98309645D01*
X174326911Y-98309467D01*
X174313435Y-98244746D01*
X174337771Y-98180379D01*
X174343796Y-98172331D01*
X174394091Y-98037483D01*
X174400500Y-97977873D01*
X174400499Y-96882128D01*
X174394091Y-96822517D01*
X174383303Y-96793594D01*
X174343797Y-96687671D01*
X174343793Y-96687664D01*
X174257547Y-96572455D01*
X174257544Y-96572452D01*
X174142335Y-96486206D01*
X174142328Y-96486202D01*
X174007482Y-96435908D01*
X174007483Y-96435908D01*
X173947883Y-96429501D01*
X173947881Y-96429500D01*
X173947873Y-96429500D01*
X173947864Y-96429500D01*
X172852129Y-96429500D01*
X172852123Y-96429501D01*
X172792516Y-96435908D01*
X172657671Y-96486202D01*
X172657664Y-96486206D01*
X172542455Y-96572452D01*
X172542452Y-96572455D01*
X172456206Y-96687664D01*
X172456202Y-96687671D01*
X172405908Y-96822517D01*
X172400594Y-96871948D01*
X172399501Y-96882123D01*
X172399500Y-96882135D01*
X172399500Y-97977870D01*
X172399501Y-97977876D01*
X172405908Y-98037483D01*
X172456202Y-98172328D01*
X172456204Y-98172331D01*
X172462231Y-98180382D01*
X172486648Y-98245846D01*
X172473105Y-98309470D01*
X172473518Y-98309641D01*
X172472595Y-98311869D01*
X172472324Y-98313143D01*
X172471188Y-98315267D01*
X172471186Y-98315272D01*
X172471186Y-98315273D01*
X172454315Y-98370890D01*
X172413975Y-98503870D01*
X172394659Y-98700000D01*
X157849236Y-98700000D01*
X157880520Y-98668716D01*
X157880520Y-98668714D01*
X157890728Y-98658507D01*
X157890730Y-98658504D01*
X160114842Y-96434391D01*
X160176163Y-96400908D01*
X160245855Y-96405892D01*
X160301788Y-96447764D01*
X160307514Y-96456101D01*
X160329120Y-96490486D01*
X160329122Y-96490489D01*
X160448708Y-96610075D01*
X160448714Y-96610080D01*
X160591901Y-96700051D01*
X160591907Y-96700054D01*
X160591909Y-96700055D01*
X160751540Y-96755912D01*
X160770560Y-96758054D01*
X160834972Y-96785119D01*
X160844359Y-96793594D01*
X162026004Y-97975240D01*
X162059489Y-98036563D01*
X162061543Y-98049033D01*
X162063687Y-98068057D01*
X162063687Y-98068059D01*
X162119544Y-98227692D01*
X162119547Y-98227697D01*
X162209518Y-98370884D01*
X162209523Y-98370890D01*
X162329109Y-98490476D01*
X162329115Y-98490481D01*
X162472302Y-98580452D01*
X162472305Y-98580454D01*
X162472309Y-98580455D01*
X162472310Y-98580456D01*
X162544913Y-98605860D01*
X162631943Y-98636314D01*
X162799997Y-98655249D01*
X162800000Y-98655249D01*
X162800003Y-98655249D01*
X162968056Y-98636314D01*
X162994311Y-98627127D01*
X163127690Y-98580456D01*
X163127692Y-98580454D01*
X163127694Y-98580454D01*
X163127697Y-98580452D01*
X163270884Y-98490481D01*
X163270885Y-98490480D01*
X163270890Y-98490477D01*
X163390477Y-98370890D01*
X163424053Y-98317455D01*
X163480452Y-98227697D01*
X163480454Y-98227694D01*
X163480454Y-98227692D01*
X163480456Y-98227690D01*
X163536313Y-98068059D01*
X163536313Y-98068058D01*
X163536314Y-98068056D01*
X163555249Y-97900002D01*
X163555249Y-97899997D01*
X163536314Y-97731943D01*
X163490144Y-97599997D01*
X163480456Y-97572310D01*
X163480455Y-97572309D01*
X163480454Y-97572305D01*
X163480452Y-97572302D01*
X163390481Y-97429115D01*
X163390476Y-97429109D01*
X163270890Y-97309523D01*
X163270884Y-97309518D01*
X163127697Y-97219547D01*
X163127692Y-97219544D01*
X163021269Y-97182306D01*
X162968059Y-97163687D01*
X162955748Y-97162299D01*
X162949033Y-97161543D01*
X162884620Y-97134474D01*
X162875240Y-97126004D01*
X161693594Y-95944359D01*
X161660109Y-95883036D01*
X161658056Y-95870572D01*
X161655912Y-95851540D01*
X161600055Y-95691909D01*
X161600054Y-95691907D01*
X161600051Y-95691901D01*
X161510080Y-95548714D01*
X161510075Y-95548708D01*
X161390489Y-95429122D01*
X161390486Y-95429120D01*
X161356101Y-95407514D01*
X161309810Y-95355179D01*
X161299163Y-95286126D01*
X161327538Y-95222277D01*
X161334379Y-95214854D01*
X161912416Y-94636819D01*
X161973739Y-94603334D01*
X162000097Y-94600500D01*
X165113331Y-94600500D01*
X165113347Y-94600501D01*
X165120943Y-94600501D01*
X165279054Y-94600501D01*
X165279057Y-94600501D01*
X165431785Y-94559577D01*
X165500564Y-94519867D01*
X165513498Y-94512400D01*
X165568709Y-94480524D01*
X165568708Y-94480524D01*
X165568716Y-94480520D01*
X165680520Y-94368716D01*
X165680520Y-94368714D01*
X165690724Y-94358511D01*
X165690727Y-94358506D01*
X166215241Y-93833993D01*
X166276562Y-93800510D01*
X166289026Y-93798457D01*
X166308059Y-93796313D01*
X166467690Y-93740456D01*
X166467693Y-93740453D01*
X166467697Y-93740452D01*
X166610884Y-93650481D01*
X166610885Y-93650480D01*
X166610890Y-93650477D01*
X166730477Y-93530890D01*
X166730481Y-93530884D01*
X166820452Y-93387697D01*
X166820454Y-93387694D01*
X166820454Y-93387692D01*
X166820456Y-93387690D01*
X166876313Y-93228059D01*
X166876313Y-93228058D01*
X166876314Y-93228056D01*
X166895249Y-93060002D01*
X166895249Y-93059996D01*
X166875913Y-92888383D01*
X166887967Y-92819562D01*
X166935317Y-92768182D01*
X166999133Y-92750500D01*
X168613331Y-92750500D01*
X168613347Y-92750501D01*
X168620943Y-92750501D01*
X168779054Y-92750501D01*
X168779057Y-92750501D01*
X168931785Y-92709577D01*
X168998792Y-92670890D01*
X169068716Y-92630520D01*
X169180520Y-92518716D01*
X169180520Y-92518714D01*
X169190724Y-92508511D01*
X169190728Y-92508506D01*
X169358506Y-92340728D01*
X169358511Y-92340724D01*
X169368714Y-92330520D01*
X169368716Y-92330520D01*
X169480520Y-92218716D01*
X169536999Y-92120890D01*
X169559577Y-92081785D01*
X169600500Y-91929057D01*
X169600500Y-91770943D01*
X169600500Y-90800096D01*
X169620185Y-90733057D01*
X169636815Y-90712419D01*
X169644809Y-90704424D01*
X169706131Y-90670941D01*
X169775823Y-90675925D01*
X169831756Y-90717797D01*
X169856173Y-90783261D01*
X169856107Y-90801836D01*
X169849500Y-90885777D01*
X169849500Y-93114208D01*
X169849501Y-93114223D01*
X169859904Y-93246413D01*
X169859905Y-93246420D01*
X169914902Y-93464678D01*
X169914903Y-93464681D01*
X170007991Y-93669622D01*
X170007997Y-93669632D01*
X170136174Y-93854645D01*
X170136178Y-93854650D01*
X170136181Y-93854654D01*
X170295346Y-94013819D01*
X170295350Y-94013822D01*
X170295354Y-94013825D01*
X170405995Y-94090477D01*
X170480374Y-94142007D01*
X170685317Y-94235096D01*
X170685321Y-94235097D01*
X170903579Y-94290094D01*
X170903581Y-94290094D01*
X170903588Y-94290096D01*
X171035783Y-94300500D01*
X172664216Y-94300499D01*
X172796412Y-94290096D01*
X173014683Y-94235096D01*
X173219626Y-94142007D01*
X173404654Y-94013819D01*
X173563819Y-93854654D01*
X173692007Y-93669626D01*
X173785096Y-93464683D01*
X173840096Y-93246412D01*
X173850456Y-93114769D01*
X173875340Y-93049483D01*
X173931571Y-93008012D01*
X173974074Y-93000500D01*
X175421926Y-93000500D01*
X175488965Y-93020185D01*
X175534720Y-93072989D01*
X175544664Y-93142147D01*
X175527653Y-93189290D01*
X175423190Y-93359757D01*
X175423188Y-93359760D01*
X175325279Y-93596135D01*
X175307636Y-93669622D01*
X175269686Y-93827697D01*
X175265547Y-93844935D01*
X175245474Y-94100000D01*
X175265547Y-94355064D01*
X175265547Y-94355067D01*
X175265548Y-94355070D01*
X175314656Y-94559616D01*
X175325279Y-94603864D01*
X175423188Y-94840239D01*
X175423190Y-94840242D01*
X175556875Y-95058396D01*
X175556878Y-95058401D01*
X175632200Y-95146591D01*
X175723044Y-95252956D01*
X175809097Y-95326452D01*
X175917598Y-95419121D01*
X175917600Y-95419122D01*
X175917601Y-95419123D01*
X176048014Y-95499040D01*
X176135757Y-95552809D01*
X176135760Y-95552811D01*
X176372135Y-95650720D01*
X176372140Y-95650722D01*
X176620930Y-95710452D01*
X176876000Y-95730526D01*
X177131070Y-95710452D01*
X177379860Y-95650722D01*
X177532289Y-95587584D01*
X177616239Y-95552811D01*
X177616240Y-95552810D01*
X177616243Y-95552809D01*
X177834399Y-95419123D01*
X178028956Y-95252956D01*
X178181210Y-95074688D01*
X178239717Y-95036496D01*
X178309584Y-95035997D01*
X178368631Y-95073351D01*
X178398109Y-95136698D01*
X178399500Y-95155221D01*
X178399500Y-96199902D01*
X178379815Y-96266941D01*
X178363181Y-96287583D01*
X176488886Y-98161877D01*
X176427563Y-98195362D01*
X176357872Y-98190378D01*
X176332487Y-98180910D01*
X176332480Y-98180908D01*
X176272883Y-98174501D01*
X176272881Y-98174500D01*
X176272873Y-98174500D01*
X176272864Y-98174500D01*
X175327129Y-98174500D01*
X175327123Y-98174501D01*
X175267516Y-98180908D01*
X175132671Y-98231202D01*
X175132664Y-98231206D01*
X175017455Y-98317452D01*
X175017452Y-98317455D01*
X174931206Y-98432664D01*
X174931202Y-98432671D01*
X174880908Y-98567517D01*
X174874501Y-98627116D01*
X174874500Y-98627135D01*
X174874500Y-99572870D01*
X174874501Y-99572876D01*
X174880908Y-99632483D01*
X174931202Y-99767328D01*
X174931206Y-99767335D01*
X175017452Y-99882544D01*
X175017455Y-99882547D01*
X175132664Y-99968793D01*
X175132671Y-99968797D01*
X175267517Y-100019091D01*
X175267516Y-100019091D01*
X175274444Y-100019835D01*
X175327127Y-100025500D01*
X176272872Y-100025499D01*
X176332483Y-100019091D01*
X176424530Y-99984759D01*
X176494218Y-99979776D01*
X176506039Y-99983678D01*
X176506246Y-99983042D01*
X176512426Y-99985049D01*
X176512429Y-99985051D01*
X176702726Y-100025500D01*
X176897274Y-100025500D01*
X177087566Y-99985052D01*
X177087565Y-99985052D01*
X177087571Y-99985051D01*
X177249569Y-99912925D01*
X177318815Y-99903642D01*
X177350425Y-99912922D01*
X177512429Y-99985051D01*
X177512432Y-99985051D01*
X177512433Y-99985052D01*
X177702726Y-100025500D01*
X177897274Y-100025500D01*
X178087566Y-99985052D01*
X178087565Y-99985052D01*
X178087571Y-99985051D01*
X178250184Y-99912651D01*
X178319429Y-99903368D01*
X178351051Y-99912653D01*
X178512585Y-99984573D01*
X178549999Y-99992524D01*
X178550000Y-99992524D01*
X179050000Y-99992524D01*
X179087412Y-99984573D01*
X179265049Y-99905484D01*
X179422357Y-99791192D01*
X179422360Y-99791190D01*
X179552463Y-99646694D01*
X179649682Y-99478307D01*
X179649683Y-99478306D01*
X179691372Y-99350000D01*
X179050000Y-99350000D01*
X179050000Y-99992524D01*
X178550000Y-99992524D01*
X178550000Y-99685189D01*
X178566613Y-99623189D01*
X178650142Y-99478511D01*
X178650143Y-99478510D01*
X178650209Y-99478307D01*
X178698822Y-99328689D01*
X178750272Y-99350000D01*
X178849728Y-99350000D01*
X178941614Y-99311940D01*
X179011940Y-99241614D01*
X179050000Y-99149728D01*
X179050000Y-99050272D01*
X179011940Y-98958386D01*
X178941614Y-98888060D01*
X178849728Y-98850000D01*
X179691372Y-98850000D01*
X179691371Y-98849999D01*
X179649683Y-98721693D01*
X179649682Y-98721692D01*
X179552463Y-98553305D01*
X179552464Y-98553305D01*
X179422360Y-98408809D01*
X179422357Y-98408807D01*
X179265049Y-98294515D01*
X179087412Y-98215426D01*
X178932566Y-98182512D01*
X178871084Y-98149319D01*
X178837308Y-98088156D01*
X178841960Y-98018442D01*
X178870661Y-97973548D01*
X179880520Y-96963691D01*
X179959577Y-96826759D01*
X180000501Y-96674032D01*
X180000501Y-96515917D01*
X180000501Y-96508322D01*
X180000500Y-96508304D01*
X180000500Y-84920945D01*
X180000499Y-84920941D01*
X179986329Y-84868057D01*
X179976260Y-84830476D01*
X179959577Y-84768215D01*
X179908814Y-84680291D01*
X179880520Y-84631284D01*
X179768716Y-84519480D01*
X179768715Y-84519479D01*
X179764385Y-84515149D01*
X179764374Y-84515139D01*
X178687590Y-83438355D01*
X178687588Y-83438352D01*
X178568717Y-83319481D01*
X178568716Y-83319480D01*
X178481904Y-83269360D01*
X178481904Y-83269359D01*
X178481900Y-83269358D01*
X178431785Y-83240423D01*
X178279057Y-83199499D01*
X178120943Y-83199499D01*
X178113347Y-83199499D01*
X178113331Y-83199500D01*
X159020940Y-83199500D01*
X158980019Y-83210464D01*
X158980019Y-83210465D01*
X158942751Y-83220451D01*
X158868214Y-83240423D01*
X158868209Y-83240426D01*
X158731290Y-83319475D01*
X158731282Y-83319481D01*
X158619478Y-83431286D01*
X157524759Y-84526004D01*
X157463436Y-84559489D01*
X157450966Y-84561543D01*
X157442673Y-84562477D01*
X157431941Y-84563687D01*
X157431940Y-84563687D01*
X157272307Y-84619544D01*
X157272302Y-84619547D01*
X157129115Y-84709518D01*
X157129109Y-84709523D01*
X157009523Y-84829109D01*
X157009518Y-84829115D01*
X156919547Y-84972302D01*
X156919545Y-84972305D01*
X156863685Y-85131943D01*
X156844751Y-85299997D01*
X156844751Y-85300002D01*
X156863685Y-85468056D01*
X156919545Y-85627694D01*
X156919547Y-85627697D01*
X157009518Y-85770884D01*
X157009523Y-85770890D01*
X157129109Y-85890476D01*
X157129115Y-85890481D01*
X157272302Y-85980452D01*
X157272305Y-85980454D01*
X157272309Y-85980455D01*
X157272310Y-85980456D01*
X157311240Y-85994078D01*
X157431943Y-86036314D01*
X157599997Y-86055249D01*
X157600000Y-86055249D01*
X157600001Y-86055249D01*
X157615961Y-86053450D01*
X157693593Y-86044703D01*
X157762414Y-86056757D01*
X157813794Y-86104106D01*
X157831419Y-86171716D01*
X157809693Y-86238122D01*
X157795158Y-86255604D01*
X156959515Y-87091249D01*
X156847710Y-87203053D01*
X156847708Y-87203055D01*
X156821248Y-87248887D01*
X156808545Y-87270890D01*
X156788598Y-87305438D01*
X156768652Y-87339985D01*
X156768652Y-87339986D01*
X156727728Y-87492714D01*
X156727728Y-87492716D01*
X156727728Y-87660817D01*
X156727729Y-87660830D01*
X156727729Y-91464566D01*
X156708044Y-91531605D01*
X156691410Y-91552247D01*
X154125477Y-94118179D01*
X154064154Y-94151664D01*
X153994462Y-94146680D01*
X153938529Y-94104808D01*
X153932802Y-94096470D01*
X153929039Y-94090481D01*
X153890477Y-94029110D01*
X153770890Y-93909523D01*
X153770884Y-93909518D01*
X153627697Y-93819547D01*
X153627694Y-93819545D01*
X153468056Y-93763685D01*
X153300003Y-93744751D01*
X153299997Y-93744751D01*
X153131943Y-93763685D01*
X152972305Y-93819545D01*
X152972302Y-93819547D01*
X152829115Y-93909518D01*
X152829109Y-93909523D01*
X152709523Y-94029109D01*
X152709518Y-94029115D01*
X152619547Y-94172302D01*
X152619545Y-94172305D01*
X152563685Y-94331943D01*
X152544751Y-94499997D01*
X151959313Y-94499997D01*
X152070884Y-94429892D01*
X152070885Y-94429891D01*
X152070890Y-94429888D01*
X152190477Y-94310301D01*
X152190481Y-94310295D01*
X152280452Y-94167108D01*
X152280454Y-94167105D01*
X152280454Y-94167103D01*
X152280456Y-94167101D01*
X152336313Y-94007470D01*
X152336313Y-94007469D01*
X152336314Y-94007467D01*
X152355249Y-93839413D01*
X152355249Y-93839408D01*
X152336314Y-93671354D01*
X152322523Y-93631943D01*
X152280456Y-93511721D01*
X152280453Y-93511716D01*
X152279890Y-93510545D01*
X152279753Y-93509713D01*
X152278156Y-93505149D01*
X152278955Y-93504869D01*
X152268540Y-93441603D01*
X152289312Y-93386670D01*
X152408971Y-93211988D01*
X152495056Y-93017023D01*
X152495058Y-93017017D01*
X152543850Y-92809570D01*
X152543852Y-92809555D01*
X152549999Y-92720988D01*
X152549999Y-91279011D01*
X152543852Y-91190440D01*
X152543851Y-91190431D01*
X152495058Y-90982982D01*
X152495053Y-90982967D01*
X152408971Y-90788009D01*
X152289682Y-90613869D01*
X150903553Y-91999999D01*
X150903553Y-92000000D01*
X151786368Y-92882815D01*
X151819853Y-92944138D01*
X151814869Y-93013830D01*
X151772997Y-93069763D01*
X151707533Y-93094180D01*
X151684804Y-93093716D01*
X151600004Y-93084162D01*
X151599997Y-93084162D01*
X151431943Y-93103097D01*
X151407402Y-93111684D01*
X151337623Y-93115244D01*
X151278769Y-93082322D01*
X148810315Y-90613868D01*
X148691030Y-90788005D01*
X148691029Y-90788006D01*
X148604946Y-90982967D01*
X148604941Y-90982982D01*
X148556149Y-91190429D01*
X148556147Y-91190444D01*
X148550000Y-91279011D01*
X148550000Y-92569550D01*
X148530315Y-92636589D01*
X148491974Y-92674542D01*
X148457345Y-92696302D01*
X148391371Y-92715310D01*
X147170860Y-92715310D01*
X147170844Y-92715309D01*
X147163248Y-92715309D01*
X147005133Y-92715309D01*
X146941686Y-92732310D01*
X146852404Y-92756233D01*
X146852399Y-92756236D01*
X146715480Y-92835285D01*
X146715472Y-92835291D01*
X144424759Y-95126004D01*
X144363436Y-95159489D01*
X144350966Y-95161543D01*
X144342673Y-95162477D01*
X144331941Y-95163687D01*
X144331940Y-95163687D01*
X144172307Y-95219544D01*
X144172302Y-95219547D01*
X144029115Y-95309518D01*
X144029109Y-95309523D01*
X144012181Y-95326452D01*
X143950858Y-95359937D01*
X143881166Y-95354953D01*
X143825233Y-95313081D01*
X143800816Y-95247617D01*
X143800500Y-95238771D01*
X143800500Y-94290662D01*
X143819507Y-94224689D01*
X143825427Y-94215265D01*
X143880456Y-94127690D01*
X143936313Y-93968059D01*
X143955249Y-93800000D01*
X143954834Y-93796313D01*
X143936314Y-93631943D01*
X143880454Y-93472305D01*
X143880452Y-93472302D01*
X143790481Y-93329115D01*
X143790476Y-93329109D01*
X143670890Y-93209523D01*
X143670884Y-93209518D01*
X143527697Y-93119547D01*
X143527694Y-93119545D01*
X143368056Y-93063685D01*
X143200003Y-93044751D01*
X143199997Y-93044751D01*
X143031943Y-93063685D01*
X142872305Y-93119545D01*
X142872302Y-93119547D01*
X142729115Y-93209518D01*
X142729109Y-93209523D01*
X142609523Y-93329109D01*
X142609518Y-93329115D01*
X142519547Y-93472302D01*
X142519545Y-93472305D01*
X142463685Y-93631943D01*
X142444751Y-93799997D01*
X142444751Y-93800002D01*
X142463686Y-93968057D01*
X142519544Y-94127690D01*
X142580493Y-94224689D01*
X142599500Y-94290662D01*
X142599500Y-97038771D01*
X142579815Y-97105810D01*
X142527011Y-97151565D01*
X142457853Y-97161509D01*
X142394297Y-97132484D01*
X142387819Y-97126452D01*
X142270890Y-97009523D01*
X142270884Y-97009518D01*
X142127697Y-96919547D01*
X142127692Y-96919544D01*
X141991673Y-96871950D01*
X141968059Y-96863687D01*
X141949031Y-96861542D01*
X141884619Y-96834474D01*
X141875239Y-96826004D01*
X140636819Y-95587584D01*
X140603334Y-95526261D01*
X140600500Y-95499903D01*
X140600500Y-91939783D01*
X140617235Y-91882791D01*
X141939500Y-91882791D01*
X141939500Y-92017209D01*
X141956803Y-92081784D01*
X141974290Y-92147047D01*
X141974291Y-92147048D01*
X142041495Y-92263450D01*
X142041497Y-92263453D01*
X142041498Y-92263454D01*
X142136546Y-92358502D01*
X142136547Y-92358503D01*
X142136549Y-92358504D01*
X142153099Y-92368059D01*
X142252954Y-92425710D01*
X142382791Y-92460500D01*
X142382794Y-92460500D01*
X142517206Y-92460500D01*
X142517209Y-92460500D01*
X142647046Y-92425710D01*
X142763454Y-92358502D01*
X142858502Y-92263454D01*
X142925710Y-92147046D01*
X142960500Y-92017209D01*
X142960500Y-91882791D01*
X142925710Y-91752954D01*
X142881699Y-91676724D01*
X142858504Y-91636549D01*
X142858500Y-91636544D01*
X142763455Y-91541499D01*
X142763450Y-91541495D01*
X142647048Y-91474291D01*
X142647047Y-91474290D01*
X142607468Y-91463685D01*
X142517209Y-91439500D01*
X142382791Y-91439500D01*
X142304888Y-91460374D01*
X142252952Y-91474290D01*
X142252951Y-91474291D01*
X142136549Y-91541495D01*
X142136544Y-91541499D01*
X142041499Y-91636544D01*
X142041495Y-91636549D01*
X141974291Y-91752951D01*
X141974290Y-91752952D01*
X141966059Y-91783672D01*
X141939500Y-91882791D01*
X140617235Y-91882791D01*
X140620185Y-91872744D01*
X140672989Y-91826989D01*
X140692408Y-91820008D01*
X140739448Y-91807404D01*
X140739459Y-91807399D01*
X140942445Y-91712746D01*
X140942451Y-91712742D01*
X141011112Y-91664665D01*
X140445739Y-91099292D01*
X140500712Y-91084563D01*
X140619287Y-91016104D01*
X140716104Y-90919287D01*
X140784563Y-90800712D01*
X140799292Y-90745739D01*
X141364665Y-91311112D01*
X141412742Y-91242451D01*
X141412746Y-91242445D01*
X141507399Y-91039459D01*
X141507403Y-91039450D01*
X141565367Y-90823124D01*
X141565369Y-90823113D01*
X141584889Y-90600002D01*
X141584889Y-90599997D01*
X141565369Y-90376886D01*
X141565367Y-90376875D01*
X141507403Y-90160549D01*
X141507399Y-90160540D01*
X141412746Y-89957555D01*
X141412744Y-89957551D01*
X141299361Y-89795623D01*
X141277034Y-89729417D01*
X141294044Y-89661650D01*
X141344992Y-89613837D01*
X141400936Y-89600500D01*
X143499064Y-89600500D01*
X143566103Y-89620185D01*
X143611858Y-89672989D01*
X143621802Y-89742147D01*
X143600639Y-89795623D01*
X143487255Y-89957551D01*
X143487253Y-89957555D01*
X143392600Y-90160540D01*
X143392596Y-90160549D01*
X143334632Y-90376875D01*
X143334630Y-90376886D01*
X143315111Y-90599997D01*
X143315111Y-90600002D01*
X143334630Y-90823113D01*
X143334632Y-90823124D01*
X143392596Y-91039450D01*
X143392600Y-91039459D01*
X143487252Y-91242443D01*
X143487253Y-91242445D01*
X143535334Y-91311112D01*
X144100707Y-90745738D01*
X144115437Y-90800712D01*
X144183896Y-90919287D01*
X144280713Y-91016104D01*
X144399288Y-91084563D01*
X144454259Y-91099292D01*
X143888886Y-91664664D01*
X143957555Y-91712746D01*
X144160540Y-91807399D01*
X144160549Y-91807403D01*
X144376875Y-91865367D01*
X144376886Y-91865369D01*
X144599998Y-91884889D01*
X144600002Y-91884889D01*
X144823113Y-91865369D01*
X144823124Y-91865367D01*
X145039450Y-91807403D01*
X145039459Y-91807399D01*
X145242445Y-91712746D01*
X145242451Y-91712742D01*
X145311112Y-91664665D01*
X144745739Y-91099292D01*
X144800712Y-91084563D01*
X144919287Y-91016104D01*
X145016104Y-90919287D01*
X145084563Y-90800712D01*
X145099292Y-90745739D01*
X145664665Y-91311112D01*
X145712742Y-91242451D01*
X145712746Y-91242445D01*
X145807399Y-91039459D01*
X145807403Y-91039450D01*
X145865367Y-90823124D01*
X145865369Y-90823113D01*
X145884889Y-90600002D01*
X145884889Y-90599997D01*
X145865369Y-90376886D01*
X145865367Y-90376875D01*
X145847015Y-90308385D01*
X149211939Y-90308385D01*
X150550000Y-91646446D01*
X150550001Y-91646446D01*
X151888059Y-90308385D01*
X151888059Y-90308384D01*
X151767020Y-90254942D01*
X151559570Y-90206149D01*
X151559555Y-90206147D01*
X151470988Y-90200000D01*
X149629011Y-90200000D01*
X149540440Y-90206147D01*
X149540431Y-90206148D01*
X149332983Y-90254941D01*
X149332972Y-90254944D01*
X149211939Y-90308385D01*
X145847015Y-90308385D01*
X145807403Y-90160549D01*
X145807399Y-90160540D01*
X145712747Y-89957557D01*
X145712746Y-89957555D01*
X145664664Y-89888887D01*
X145664664Y-89888886D01*
X145099292Y-90454259D01*
X145084563Y-90399288D01*
X145016104Y-90280713D01*
X144919287Y-90183896D01*
X144800712Y-90115437D01*
X144745738Y-90100707D01*
X145311112Y-89535334D01*
X145311112Y-89535333D01*
X145242445Y-89487253D01*
X145242443Y-89487252D01*
X145039459Y-89392600D01*
X145039450Y-89392596D01*
X144823116Y-89334630D01*
X144820591Y-89334185D01*
X144819575Y-89333681D01*
X144817890Y-89333230D01*
X144817980Y-89332891D01*
X144757990Y-89303154D01*
X144722104Y-89243205D01*
X144724324Y-89173371D01*
X144754446Y-89124394D01*
X147461006Y-86417835D01*
X147461011Y-86417831D01*
X147471214Y-86407627D01*
X147471216Y-86407627D01*
X147583020Y-86295823D01*
X147645673Y-86187304D01*
X147662077Y-86158892D01*
X147703001Y-86006164D01*
X147703001Y-85848050D01*
X147703001Y-85840455D01*
X147703000Y-85840437D01*
X147703000Y-85190662D01*
X147722007Y-85124689D01*
X147744503Y-85088887D01*
X147782956Y-85027690D01*
X147838813Y-84868059D01*
X147851740Y-84753334D01*
X147857749Y-84700002D01*
X147857749Y-84699997D01*
X147838814Y-84531943D01*
X147788239Y-84387408D01*
X147782956Y-84372310D01*
X147782955Y-84372309D01*
X147782954Y-84372305D01*
X147782952Y-84372302D01*
X147692981Y-84229115D01*
X147692976Y-84229109D01*
X147573390Y-84109523D01*
X147573384Y-84109518D01*
X147430197Y-84019547D01*
X147430194Y-84019545D01*
X147270556Y-83963685D01*
X147102503Y-83944751D01*
X147102497Y-83944751D01*
X146934443Y-83963685D01*
X146774805Y-84019545D01*
X146774802Y-84019547D01*
X146631615Y-84109518D01*
X146631609Y-84109523D01*
X146512023Y-84229109D01*
X146512018Y-84229115D01*
X146422047Y-84372302D01*
X146422045Y-84372305D01*
X146366185Y-84531943D01*
X146347251Y-84699997D01*
X146347251Y-84700002D01*
X146366186Y-84868057D01*
X146422044Y-85027690D01*
X146482993Y-85124689D01*
X146502000Y-85190662D01*
X146502000Y-85627009D01*
X146482315Y-85694048D01*
X146465681Y-85714690D01*
X146078285Y-86102085D01*
X146016962Y-86135570D01*
X145947270Y-86130586D01*
X145891337Y-86088714D01*
X145866920Y-86023250D01*
X145867076Y-86003596D01*
X145884889Y-85800000D01*
X145884889Y-85799997D01*
X145865369Y-85576886D01*
X145865367Y-85576875D01*
X145807403Y-85360549D01*
X145807399Y-85360540D01*
X145712747Y-85157557D01*
X145712746Y-85157555D01*
X145664664Y-85088887D01*
X145664664Y-85088886D01*
X145099292Y-85654259D01*
X145084563Y-85599288D01*
X145016104Y-85480713D01*
X144919287Y-85383896D01*
X144800712Y-85315437D01*
X144745740Y-85300707D01*
X145311112Y-84735334D01*
X145311112Y-84735333D01*
X145242445Y-84687253D01*
X145242443Y-84687252D01*
X145039459Y-84592600D01*
X145039450Y-84592596D01*
X144823124Y-84534632D01*
X144823113Y-84534630D01*
X144600002Y-84515111D01*
X144599998Y-84515111D01*
X144376886Y-84534630D01*
X144376875Y-84534632D01*
X144160549Y-84592596D01*
X144160540Y-84592600D01*
X143957556Y-84687253D01*
X143888887Y-84735334D01*
X144454260Y-85300707D01*
X144399288Y-85315437D01*
X144280713Y-85383896D01*
X144183896Y-85480713D01*
X144115437Y-85599288D01*
X144100707Y-85654260D01*
X143535334Y-85088887D01*
X143487253Y-85157556D01*
X143392600Y-85360540D01*
X143392596Y-85360549D01*
X143334632Y-85576875D01*
X143334630Y-85576886D01*
X143315111Y-85799997D01*
X143315111Y-85800002D01*
X143334630Y-86023113D01*
X143334632Y-86023124D01*
X143392596Y-86239450D01*
X143392600Y-86239459D01*
X143487252Y-86442443D01*
X143487253Y-86442445D01*
X143535334Y-86511112D01*
X144100707Y-85945739D01*
X144115437Y-86000712D01*
X144183896Y-86119287D01*
X144280713Y-86216104D01*
X144399288Y-86284563D01*
X144454259Y-86299292D01*
X143888886Y-86864664D01*
X143957555Y-86912746D01*
X144160540Y-87007399D01*
X144160547Y-87007402D01*
X144171842Y-87010429D01*
X144231502Y-87046794D01*
X144262031Y-87109642D01*
X144253736Y-87179017D01*
X144209251Y-87232895D01*
X144173370Y-87248476D01*
X144173514Y-87248887D01*
X144167908Y-87250848D01*
X144167343Y-87251094D01*
X144166951Y-87251183D01*
X144007305Y-87307045D01*
X144007302Y-87307047D01*
X143864115Y-87397018D01*
X143864109Y-87397023D01*
X143744523Y-87516609D01*
X143744518Y-87516615D01*
X143654547Y-87659802D01*
X143654544Y-87659807D01*
X143623591Y-87748267D01*
X143599731Y-87816456D01*
X143559011Y-87873230D01*
X143494059Y-87898978D01*
X143482691Y-87899500D01*
X141171527Y-87899500D01*
X141104488Y-87879815D01*
X141058733Y-87827011D01*
X141048307Y-87761617D01*
X141055249Y-87700003D01*
X141055249Y-87699997D01*
X141036314Y-87531943D01*
X140999836Y-87427694D01*
X140980456Y-87372310D01*
X140980455Y-87372309D01*
X140980454Y-87372305D01*
X140980452Y-87372302D01*
X140890481Y-87229115D01*
X140890476Y-87229109D01*
X140816470Y-87155103D01*
X140782985Y-87093780D01*
X140787969Y-87024088D01*
X140829841Y-86968155D01*
X140851747Y-86955040D01*
X140942441Y-86912748D01*
X140942451Y-86912742D01*
X141011112Y-86864665D01*
X140445739Y-86299292D01*
X140500712Y-86284563D01*
X140619287Y-86216104D01*
X140716104Y-86119287D01*
X140784563Y-86000712D01*
X140799292Y-85945739D01*
X141364665Y-86511112D01*
X141412742Y-86442451D01*
X141412746Y-86442445D01*
X141507399Y-86239459D01*
X141507403Y-86239450D01*
X141565367Y-86023124D01*
X141565369Y-86023113D01*
X141584889Y-85800002D01*
X141584889Y-85799997D01*
X141565369Y-85576886D01*
X141565367Y-85576875D01*
X141507403Y-85360549D01*
X141507399Y-85360540D01*
X141412747Y-85157557D01*
X141412746Y-85157555D01*
X141364664Y-85088887D01*
X141364664Y-85088886D01*
X140799292Y-85654259D01*
X140784563Y-85599288D01*
X140716104Y-85480713D01*
X140619287Y-85383896D01*
X140500712Y-85315437D01*
X140445740Y-85300707D01*
X141011112Y-84735334D01*
X141011112Y-84735333D01*
X140942445Y-84687253D01*
X140942443Y-84687252D01*
X140739459Y-84592600D01*
X140739450Y-84592596D01*
X140523124Y-84534632D01*
X140523113Y-84534630D01*
X140300002Y-84515111D01*
X140299998Y-84515111D01*
X140076886Y-84534630D01*
X140076875Y-84534632D01*
X139860549Y-84592596D01*
X139860540Y-84592600D01*
X139657556Y-84687253D01*
X139588887Y-84735334D01*
X140154260Y-85300707D01*
X140099288Y-85315437D01*
X139980713Y-85383896D01*
X139883896Y-85480713D01*
X139815437Y-85599288D01*
X139800707Y-85654260D01*
X139235334Y-85088887D01*
X139187253Y-85157556D01*
X139092600Y-85360540D01*
X139092596Y-85360549D01*
X139034632Y-85576875D01*
X139034630Y-85576886D01*
X139015111Y-85799997D01*
X139015111Y-85800002D01*
X139034630Y-86023113D01*
X139034632Y-86023124D01*
X139092596Y-86239450D01*
X139092600Y-86239459D01*
X139187252Y-86442443D01*
X139187253Y-86442445D01*
X139235334Y-86511112D01*
X139800707Y-85945739D01*
X139815437Y-86000712D01*
X139883896Y-86119287D01*
X139980713Y-86216104D01*
X140099288Y-86284563D01*
X140154259Y-86299292D01*
X139588886Y-86864664D01*
X139657555Y-86912747D01*
X139748253Y-86955040D01*
X139800692Y-87001212D01*
X139819844Y-87068406D01*
X139799628Y-87135287D01*
X139783530Y-87155103D01*
X139709518Y-87229115D01*
X139619547Y-87372302D01*
X139619544Y-87372307D01*
X139563687Y-87531940D01*
X139563687Y-87531941D01*
X139563194Y-87536313D01*
X139561543Y-87550966D01*
X139534473Y-87615379D01*
X139526005Y-87624759D01*
X139425233Y-87725531D01*
X139313428Y-87837335D01*
X139313426Y-87837338D01*
X139277539Y-87899498D01*
X139277538Y-87899500D01*
X139234370Y-87974267D01*
X139234370Y-87974268D01*
X139193446Y-88126996D01*
X139193446Y-88126998D01*
X139193446Y-88295099D01*
X139193447Y-88295112D01*
X139193447Y-88854341D01*
X139173762Y-88921380D01*
X139157128Y-88942022D01*
X138662181Y-89436969D01*
X138600858Y-89470454D01*
X138531166Y-89465470D01*
X138475233Y-89423598D01*
X138450816Y-89358134D01*
X138450500Y-89349288D01*
X138450500Y-84387404D01*
X141814500Y-84387404D01*
X141814500Y-84512595D01*
X141838920Y-84635361D01*
X141838923Y-84635373D01*
X141886823Y-84751015D01*
X141886830Y-84751028D01*
X141956374Y-84855107D01*
X141956377Y-84855111D01*
X142044888Y-84943622D01*
X142044892Y-84943625D01*
X142148971Y-85013169D01*
X142148984Y-85013176D01*
X142264626Y-85061076D01*
X142264631Y-85061078D01*
X142382065Y-85084437D01*
X142387404Y-85085499D01*
X142387408Y-85085500D01*
X142387409Y-85085500D01*
X142512592Y-85085500D01*
X142512593Y-85085499D01*
X142635369Y-85061078D01*
X142751022Y-85013173D01*
X142855108Y-84943625D01*
X142943625Y-84855108D01*
X143013173Y-84751022D01*
X143061078Y-84635369D01*
X143085500Y-84512591D01*
X143085500Y-84387409D01*
X143061078Y-84264631D01*
X143046365Y-84229110D01*
X143013176Y-84148984D01*
X143013169Y-84148971D01*
X142943625Y-84044892D01*
X142943622Y-84044888D01*
X142855111Y-83956377D01*
X142855107Y-83956374D01*
X142751028Y-83886830D01*
X142751015Y-83886823D01*
X142635373Y-83838923D01*
X142635361Y-83838920D01*
X142512595Y-83814500D01*
X142512591Y-83814500D01*
X142387409Y-83814500D01*
X142387404Y-83814500D01*
X142264638Y-83838920D01*
X142264626Y-83838923D01*
X142148984Y-83886823D01*
X142148971Y-83886830D01*
X142044892Y-83956374D01*
X142044888Y-83956377D01*
X141956377Y-84044888D01*
X141956374Y-84044892D01*
X141886830Y-84148971D01*
X141886823Y-84148984D01*
X141838923Y-84264626D01*
X141838920Y-84264638D01*
X141814500Y-84387404D01*
X138450500Y-84387404D01*
X138450500Y-82874500D01*
X138470185Y-82807461D01*
X138522989Y-82761706D01*
X138574500Y-82750500D01*
X180325500Y-82750500D01*
X180392539Y-82770185D01*
G37*
%TD.AperFunction*%
%TA.AperFunction,Conductor*%
G36*
X150449646Y-94459596D02*
G01*
X150495401Y-94512400D01*
X150506607Y-94563911D01*
X150506607Y-96492795D01*
X150486922Y-96559834D01*
X150470288Y-96580476D01*
X149287584Y-97763181D01*
X149226261Y-97796666D01*
X149199903Y-97799500D01*
X146549097Y-97799500D01*
X146482058Y-97779815D01*
X146436303Y-97727011D01*
X146426359Y-97657853D01*
X146455384Y-97594297D01*
X146461416Y-97587819D01*
X147944044Y-96105192D01*
X149573006Y-94476230D01*
X149634329Y-94442745D01*
X149660687Y-94439911D01*
X150382607Y-94439911D01*
X150449646Y-94459596D01*
G37*
%TD.AperFunction*%
%TD*%
M02*
