%TF.GenerationSoftware,KiCad,Pcbnew,8.0.6*%
%TF.CreationDate,2025-01-20T01:55:32+01:00*%
%TF.ProjectId,Thermometer_CD_Project,54686572-6d6f-46d6-9574-65725f43445f,rev?*%
%TF.SameCoordinates,Original*%
%TF.FileFunction,Legend,Bot*%
%TF.FilePolarity,Positive*%
%FSLAX46Y46*%
G04 Gerber Fmt 4.6, Leading zero omitted, Abs format (unit mm)*
G04 Created by KiCad (PCBNEW 8.0.6) date 2025-01-20 01:55:32*
%MOMM*%
%LPD*%
G01*
G04 APERTURE LIST*
%ADD10C,0.254000*%
%ADD11C,0.100000*%
%ADD12C,0.200000*%
%ADD13R,0.700000X1.600000*%
G04 APERTURE END LIST*
D10*
X177389842Y-89032380D02*
X177450318Y-89213809D01*
X177450318Y-89213809D02*
X177450318Y-89516190D01*
X177450318Y-89516190D02*
X177389842Y-89637142D01*
X177389842Y-89637142D02*
X177329365Y-89697618D01*
X177329365Y-89697618D02*
X177208413Y-89758095D01*
X177208413Y-89758095D02*
X177087461Y-89758095D01*
X177087461Y-89758095D02*
X176966508Y-89697618D01*
X176966508Y-89697618D02*
X176906032Y-89637142D01*
X176906032Y-89637142D02*
X176845556Y-89516190D01*
X176845556Y-89516190D02*
X176785080Y-89274285D01*
X176785080Y-89274285D02*
X176724603Y-89153333D01*
X176724603Y-89153333D02*
X176664127Y-89092856D01*
X176664127Y-89092856D02*
X176543175Y-89032380D01*
X176543175Y-89032380D02*
X176422222Y-89032380D01*
X176422222Y-89032380D02*
X176301270Y-89092856D01*
X176301270Y-89092856D02*
X176240794Y-89153333D01*
X176240794Y-89153333D02*
X176180318Y-89274285D01*
X176180318Y-89274285D02*
X176180318Y-89576666D01*
X176180318Y-89576666D02*
X176240794Y-89758095D01*
X177450318Y-90967619D02*
X177450318Y-90241904D01*
X177450318Y-90604761D02*
X176180318Y-90604761D01*
X176180318Y-90604761D02*
X176361746Y-90483809D01*
X176361746Y-90483809D02*
X176482699Y-90362857D01*
X176482699Y-90362857D02*
X176543175Y-90241904D01*
D11*
X143307419Y-91666666D02*
X144021704Y-91666666D01*
X144021704Y-91666666D02*
X144164561Y-91619047D01*
X144164561Y-91619047D02*
X144259800Y-91523809D01*
X144259800Y-91523809D02*
X144307419Y-91380952D01*
X144307419Y-91380952D02*
X144307419Y-91285714D01*
X143402657Y-92095238D02*
X143355038Y-92142857D01*
X143355038Y-92142857D02*
X143307419Y-92238095D01*
X143307419Y-92238095D02*
X143307419Y-92476190D01*
X143307419Y-92476190D02*
X143355038Y-92571428D01*
X143355038Y-92571428D02*
X143402657Y-92619047D01*
X143402657Y-92619047D02*
X143497895Y-92666666D01*
X143497895Y-92666666D02*
X143593133Y-92666666D01*
X143593133Y-92666666D02*
X143735990Y-92619047D01*
X143735990Y-92619047D02*
X144307419Y-92047619D01*
X144307419Y-92047619D02*
X144307419Y-92666666D01*
%TO.C,S1*%
X174176000Y-92000000D02*
X174176000Y-92000000D01*
X174276000Y-92000000D02*
X174276000Y-92000000D01*
D12*
X174726000Y-85700000D02*
X174726000Y-94300000D01*
X174726000Y-94300000D02*
X175476000Y-94300000D01*
X175476000Y-85700000D02*
X174726000Y-85700000D01*
X178276000Y-85700000D02*
X179026000Y-85700000D01*
X179026000Y-85700000D02*
X179026000Y-94300000D01*
X179026000Y-94300000D02*
X178276000Y-94300000D01*
D11*
X174176000Y-92000000D02*
G75*
G02*
X174276000Y-92000000I50000J0D01*
G01*
X174276000Y-92000000D02*
G75*
G02*
X174176000Y-92000000I-50000J0D01*
G01*
%TO.C,J2*%
X147850000Y-84000000D02*
X171850000Y-84000000D01*
X171850000Y-100000000D01*
X147850000Y-100000000D01*
X147850000Y-84000000D01*
%TD*%
D13*
%TO.C,L2*%
X165900000Y-85100000D03*
%TD*%
M02*
