M48
; DRILL file {KiCad 8.0.6} date 2025-01-20T01:56:26+0100
; FORMAT={-:-/ absolute / metric / decimal}
; #@! TF.CreationDate,2025-01-20T01:56:26+01:00
; #@! TF.GenerationSoftware,Kicad,Pcbnew,8.0.6
; #@! TF.FileFunction,Plated,1,2,PTH
FMAT,2
METRIC
; #@! TA.AperFunction,Plated,PTH,ViaDrill
T1C0.300
; #@! TA.AperFunction,Plated,PTH,ComponentDrill
T2C0.300
; #@! TA.AperFunction,Plated,PTH,ComponentDrill
T3C0.500
; #@! TA.AperFunction,Plated,PTH,ComponentDrill
T4C0.650
; #@! TA.AperFunction,Plated,PTH,ComponentDrill
T5C0.800
; #@! TA.AperFunction,Plated,PTH,ComponentDrill
T6C1.040
; #@! TA.AperFunction,Plated,PTH,ComponentDrill
T7C1.500
%
G90
G05
T1
X140.294Y-88.492
X140.3Y-87.7
X140.7Y-89.0
X141.7Y-98.4
X141.8Y-97.6
X142.9Y-99.2
X143.2Y-93.8
X143.5Y-97.6
X144.335Y-87.987
X144.5Y-95.9
X145.4Y-97.8
X147.102Y-84.7
X147.3Y-90.3
X148.3Y-95.7
X148.3Y-96.7
X148.882Y-93.316
X149.3Y-95.7
X149.3Y-96.7
X149.683Y-88.383
X150.319Y-91.961
X150.902Y-93.839
X151.6Y-93.839
X152.2Y-95.4
X153.3Y-94.5
X153.6Y-89.1
X153.6Y-90.1
X153.85Y-96.75
X154.45Y-95.35
X154.6Y-88.1
X154.6Y-89.1
X154.6Y-90.1
X154.6Y-91.1
X155.6Y-88.1
X155.6Y-89.1
X155.6Y-90.1
X155.6Y-91.1
X156.6Y-89.1
X156.6Y-90.1
X157.6Y-85.3
X158.4Y-93.5
X158.8Y-86.1
X159.0Y-86.8
X159.0Y-92.2
X159.6Y-85.539
X160.92Y-96.02
X161.3Y-89.7
X162.1Y-87.1
X162.8Y-97.9
X163.0Y-88.7
X166.14Y-93.06
X168.3Y-91.65
X169.4Y-93.9
X169.95Y-88.15
X174.435Y-89.365
T2
X166.121Y-88.25
X166.121Y-89.25
X166.621Y-88.75
X167.121Y-88.25
X167.121Y-89.25
T3
X175.8Y-99.1
X176.8Y-99.1
X177.8Y-99.1
X178.8Y-99.1
T4
X173.4Y-97.43
X173.4Y-98.7
T5
X176.876Y-88.0
X176.876Y-90.0
X176.876Y-92.0
T6
X140.3Y-85.8
X140.3Y-90.6
X144.6Y-85.8
X144.6Y-90.6
T7
X176.876Y-85.9
X176.876Y-94.1
M30
