%TF.GenerationSoftware,KiCad,Pcbnew,8.0.6*%
%TF.CreationDate,2025-01-20T01:55:32+01:00*%
%TF.ProjectId,Thermometer_CD_Project,54686572-6d6f-46d6-9574-65725f43445f,rev?*%
%TF.SameCoordinates,Original*%
%TF.FileFunction,Legend,Top*%
%TF.FilePolarity,Positive*%
%FSLAX46Y46*%
G04 Gerber Fmt 4.6, Leading zero omitted, Abs format (unit mm)*
G04 Created by KiCad (PCBNEW 8.0.6) date 2025-01-20 01:55:32*
%MOMM*%
%LPD*%
G01*
G04 APERTURE LIST*
%ADD10C,0.150000*%
%ADD11C,0.254000*%
%ADD12C,0.120000*%
%ADD13C,0.200000*%
%ADD14C,0.100000*%
%ADD15C,0.250000*%
G04 APERTURE END LIST*
D10*
X165419580Y-89396666D02*
X165467200Y-89444285D01*
X165467200Y-89444285D02*
X165514819Y-89587142D01*
X165514819Y-89587142D02*
X165514819Y-89682380D01*
X165514819Y-89682380D02*
X165467200Y-89825237D01*
X165467200Y-89825237D02*
X165371961Y-89920475D01*
X165371961Y-89920475D02*
X165276723Y-89968094D01*
X165276723Y-89968094D02*
X165086247Y-90015713D01*
X165086247Y-90015713D02*
X164943390Y-90015713D01*
X164943390Y-90015713D02*
X164752914Y-89968094D01*
X164752914Y-89968094D02*
X164657676Y-89920475D01*
X164657676Y-89920475D02*
X164562438Y-89825237D01*
X164562438Y-89825237D02*
X164514819Y-89682380D01*
X164514819Y-89682380D02*
X164514819Y-89587142D01*
X164514819Y-89587142D02*
X164562438Y-89444285D01*
X164562438Y-89444285D02*
X164610057Y-89396666D01*
X164514819Y-89063332D02*
X164514819Y-88396666D01*
X164514819Y-88396666D02*
X165514819Y-88825237D01*
X144922885Y-94410669D02*
X144350466Y-94309654D01*
X144518824Y-94814730D02*
X143811718Y-94107623D01*
X143811718Y-94107623D02*
X144081092Y-93838249D01*
X144081092Y-93838249D02*
X144182107Y-93804577D01*
X144182107Y-93804577D02*
X144249450Y-93804577D01*
X144249450Y-93804577D02*
X144350466Y-93838249D01*
X144350466Y-93838249D02*
X144451481Y-93939264D01*
X144451481Y-93939264D02*
X144485153Y-94040280D01*
X144485153Y-94040280D02*
X144485153Y-94107623D01*
X144485153Y-94107623D02*
X144451481Y-94208638D01*
X144451481Y-94208638D02*
X144182107Y-94478012D01*
X144922885Y-93602547D02*
X144821870Y-93636219D01*
X144821870Y-93636219D02*
X144754527Y-93636219D01*
X144754527Y-93636219D02*
X144653511Y-93602547D01*
X144653511Y-93602547D02*
X144619840Y-93568875D01*
X144619840Y-93568875D02*
X144586168Y-93467860D01*
X144586168Y-93467860D02*
X144586168Y-93400516D01*
X144586168Y-93400516D02*
X144619840Y-93299501D01*
X144619840Y-93299501D02*
X144754527Y-93164814D01*
X144754527Y-93164814D02*
X144855542Y-93131142D01*
X144855542Y-93131142D02*
X144922885Y-93131142D01*
X144922885Y-93131142D02*
X145023901Y-93164814D01*
X145023901Y-93164814D02*
X145057572Y-93198486D01*
X145057572Y-93198486D02*
X145091244Y-93299501D01*
X145091244Y-93299501D02*
X145091244Y-93366845D01*
X145091244Y-93366845D02*
X145057572Y-93467860D01*
X145057572Y-93467860D02*
X144922885Y-93602547D01*
X144922885Y-93602547D02*
X144889214Y-93703562D01*
X144889214Y-93703562D02*
X144889214Y-93770906D01*
X144889214Y-93770906D02*
X144922885Y-93871921D01*
X144922885Y-93871921D02*
X145057572Y-94006608D01*
X145057572Y-94006608D02*
X145158588Y-94040280D01*
X145158588Y-94040280D02*
X145225931Y-94040280D01*
X145225931Y-94040280D02*
X145326946Y-94006608D01*
X145326946Y-94006608D02*
X145461633Y-93871921D01*
X145461633Y-93871921D02*
X145495305Y-93770906D01*
X145495305Y-93770906D02*
X145495305Y-93703562D01*
X145495305Y-93703562D02*
X145461633Y-93602547D01*
X145461633Y-93602547D02*
X145326946Y-93467860D01*
X145326946Y-93467860D02*
X145225931Y-93434188D01*
X145225931Y-93434188D02*
X145158588Y-93434188D01*
X145158588Y-93434188D02*
X145057572Y-93467860D01*
X146540038Y-91327997D02*
X146540038Y-91395341D01*
X146540038Y-91395341D02*
X146472694Y-91530028D01*
X146472694Y-91530028D02*
X146405351Y-91597371D01*
X146405351Y-91597371D02*
X146270664Y-91664715D01*
X146270664Y-91664715D02*
X146135977Y-91664715D01*
X146135977Y-91664715D02*
X146034962Y-91631043D01*
X146034962Y-91631043D02*
X145866603Y-91530028D01*
X145866603Y-91530028D02*
X145765588Y-91429013D01*
X145765588Y-91429013D02*
X145664572Y-91260654D01*
X145664572Y-91260654D02*
X145630901Y-91159639D01*
X145630901Y-91159639D02*
X145630901Y-91024952D01*
X145630901Y-91024952D02*
X145698244Y-90890265D01*
X145698244Y-90890265D02*
X145765588Y-90822921D01*
X145765588Y-90822921D02*
X145900275Y-90755578D01*
X145900275Y-90755578D02*
X145967618Y-90755578D01*
X147280816Y-90721906D02*
X146876755Y-91125967D01*
X147078786Y-90923936D02*
X146371679Y-90216830D01*
X146371679Y-90216830D02*
X146405351Y-90385188D01*
X146405351Y-90385188D02*
X146405351Y-90519875D01*
X146405351Y-90519875D02*
X146371679Y-90620891D01*
X146809412Y-89779097D02*
X147280817Y-89307692D01*
X147280817Y-89307692D02*
X147684878Y-90317845D01*
X151507786Y-85723274D02*
X151440442Y-85723274D01*
X151440442Y-85723274D02*
X151305755Y-85655930D01*
X151305755Y-85655930D02*
X151238412Y-85588587D01*
X151238412Y-85588587D02*
X151171068Y-85453900D01*
X151171068Y-85453900D02*
X151171068Y-85319213D01*
X151171068Y-85319213D02*
X151204740Y-85218198D01*
X151204740Y-85218198D02*
X151305755Y-85049839D01*
X151305755Y-85049839D02*
X151406770Y-84948824D01*
X151406770Y-84948824D02*
X151575129Y-84847808D01*
X151575129Y-84847808D02*
X151676144Y-84814137D01*
X151676144Y-84814137D02*
X151810831Y-84814137D01*
X151810831Y-84814137D02*
X151945518Y-84881480D01*
X151945518Y-84881480D02*
X152012862Y-84948824D01*
X152012862Y-84948824D02*
X152080205Y-85083511D01*
X152080205Y-85083511D02*
X152080205Y-85150854D01*
X152113877Y-86464052D02*
X151709816Y-86059991D01*
X151911847Y-86262022D02*
X152618953Y-85554915D01*
X152618953Y-85554915D02*
X152450595Y-85588587D01*
X152450595Y-85588587D02*
X152315908Y-85588587D01*
X152315908Y-85588587D02*
X152214892Y-85554915D01*
X171379580Y-91966666D02*
X171427200Y-92014285D01*
X171427200Y-92014285D02*
X171474819Y-92157142D01*
X171474819Y-92157142D02*
X171474819Y-92252380D01*
X171474819Y-92252380D02*
X171427200Y-92395237D01*
X171427200Y-92395237D02*
X171331961Y-92490475D01*
X171331961Y-92490475D02*
X171236723Y-92538094D01*
X171236723Y-92538094D02*
X171046247Y-92585713D01*
X171046247Y-92585713D02*
X170903390Y-92585713D01*
X170903390Y-92585713D02*
X170712914Y-92538094D01*
X170712914Y-92538094D02*
X170617676Y-92490475D01*
X170617676Y-92490475D02*
X170522438Y-92395237D01*
X170522438Y-92395237D02*
X170474819Y-92252380D01*
X170474819Y-92252380D02*
X170474819Y-92157142D01*
X170474819Y-92157142D02*
X170522438Y-92014285D01*
X170522438Y-92014285D02*
X170570057Y-91966666D01*
X171474819Y-91490475D02*
X171474819Y-91299999D01*
X171474819Y-91299999D02*
X171427200Y-91204761D01*
X171427200Y-91204761D02*
X171379580Y-91157142D01*
X171379580Y-91157142D02*
X171236723Y-91061904D01*
X171236723Y-91061904D02*
X171046247Y-91014285D01*
X171046247Y-91014285D02*
X170665295Y-91014285D01*
X170665295Y-91014285D02*
X170570057Y-91061904D01*
X170570057Y-91061904D02*
X170522438Y-91109523D01*
X170522438Y-91109523D02*
X170474819Y-91204761D01*
X170474819Y-91204761D02*
X170474819Y-91395237D01*
X170474819Y-91395237D02*
X170522438Y-91490475D01*
X170522438Y-91490475D02*
X170570057Y-91538094D01*
X170570057Y-91538094D02*
X170665295Y-91585713D01*
X170665295Y-91585713D02*
X170903390Y-91585713D01*
X170903390Y-91585713D02*
X170998628Y-91538094D01*
X170998628Y-91538094D02*
X171046247Y-91490475D01*
X171046247Y-91490475D02*
X171093866Y-91395237D01*
X171093866Y-91395237D02*
X171093866Y-91204761D01*
X171093866Y-91204761D02*
X171046247Y-91109523D01*
X171046247Y-91109523D02*
X170998628Y-91061904D01*
X170998628Y-91061904D02*
X170903390Y-91014285D01*
D11*
X141754318Y-88623332D02*
X142661461Y-88623332D01*
X142661461Y-88623332D02*
X142842889Y-88683809D01*
X142842889Y-88683809D02*
X142963842Y-88804761D01*
X142963842Y-88804761D02*
X143024318Y-88986190D01*
X143024318Y-88986190D02*
X143024318Y-89107142D01*
X141754318Y-88139523D02*
X141754318Y-87353332D01*
X141754318Y-87353332D02*
X142238127Y-87776666D01*
X142238127Y-87776666D02*
X142238127Y-87595237D01*
X142238127Y-87595237D02*
X142298603Y-87474285D01*
X142298603Y-87474285D02*
X142359080Y-87413809D01*
X142359080Y-87413809D02*
X142480032Y-87353332D01*
X142480032Y-87353332D02*
X142782413Y-87353332D01*
X142782413Y-87353332D02*
X142903365Y-87413809D01*
X142903365Y-87413809D02*
X142963842Y-87474285D01*
X142963842Y-87474285D02*
X143024318Y-87595237D01*
X143024318Y-87595237D02*
X143024318Y-87958094D01*
X143024318Y-87958094D02*
X142963842Y-88079047D01*
X142963842Y-88079047D02*
X142903365Y-88139523D01*
X141010237Y-98674318D02*
X141010237Y-97404318D01*
X142340714Y-98553365D02*
X142280238Y-98613842D01*
X142280238Y-98613842D02*
X142098809Y-98674318D01*
X142098809Y-98674318D02*
X141977857Y-98674318D01*
X141977857Y-98674318D02*
X141796428Y-98613842D01*
X141796428Y-98613842D02*
X141675476Y-98492889D01*
X141675476Y-98492889D02*
X141614999Y-98371937D01*
X141614999Y-98371937D02*
X141554523Y-98130032D01*
X141554523Y-98130032D02*
X141554523Y-97948603D01*
X141554523Y-97948603D02*
X141614999Y-97706699D01*
X141614999Y-97706699D02*
X141675476Y-97585746D01*
X141675476Y-97585746D02*
X141796428Y-97464794D01*
X141796428Y-97464794D02*
X141977857Y-97404318D01*
X141977857Y-97404318D02*
X142098809Y-97404318D01*
X142098809Y-97404318D02*
X142280238Y-97464794D01*
X142280238Y-97464794D02*
X142340714Y-97525270D01*
X142764047Y-97404318D02*
X143550238Y-97404318D01*
X143550238Y-97404318D02*
X143126904Y-97888127D01*
X143126904Y-97888127D02*
X143308333Y-97888127D01*
X143308333Y-97888127D02*
X143429285Y-97948603D01*
X143429285Y-97948603D02*
X143489761Y-98009080D01*
X143489761Y-98009080D02*
X143550238Y-98130032D01*
X143550238Y-98130032D02*
X143550238Y-98432413D01*
X143550238Y-98432413D02*
X143489761Y-98553365D01*
X143489761Y-98553365D02*
X143429285Y-98613842D01*
X143429285Y-98613842D02*
X143308333Y-98674318D01*
X143308333Y-98674318D02*
X142945476Y-98674318D01*
X142945476Y-98674318D02*
X142824523Y-98613842D01*
X142824523Y-98613842D02*
X142764047Y-98553365D01*
D10*
X173066666Y-99954819D02*
X173066666Y-100669104D01*
X173066666Y-100669104D02*
X173019047Y-100811961D01*
X173019047Y-100811961D02*
X172923809Y-100907200D01*
X172923809Y-100907200D02*
X172780952Y-100954819D01*
X172780952Y-100954819D02*
X172685714Y-100954819D01*
X174066666Y-100954819D02*
X173495238Y-100954819D01*
X173780952Y-100954819D02*
X173780952Y-99954819D01*
X173780952Y-99954819D02*
X173685714Y-100097676D01*
X173685714Y-100097676D02*
X173590476Y-100192914D01*
X173590476Y-100192914D02*
X173495238Y-100240533D01*
X165859095Y-85404819D02*
X165859095Y-86214342D01*
X165859095Y-86214342D02*
X165906714Y-86309580D01*
X165906714Y-86309580D02*
X165954333Y-86357200D01*
X165954333Y-86357200D02*
X166049571Y-86404819D01*
X166049571Y-86404819D02*
X166240047Y-86404819D01*
X166240047Y-86404819D02*
X166335285Y-86357200D01*
X166335285Y-86357200D02*
X166382904Y-86309580D01*
X166382904Y-86309580D02*
X166430523Y-86214342D01*
X166430523Y-86214342D02*
X166430523Y-85404819D01*
X167335285Y-85738152D02*
X167335285Y-86404819D01*
X167097190Y-85357200D02*
X166859095Y-86071485D01*
X166859095Y-86071485D02*
X167478142Y-86071485D01*
X157903754Y-85139456D02*
X157331335Y-85038441D01*
X157499693Y-85543517D02*
X156792587Y-84836410D01*
X156792587Y-84836410D02*
X157061961Y-84567036D01*
X157061961Y-84567036D02*
X157162976Y-84533364D01*
X157162976Y-84533364D02*
X157230319Y-84533364D01*
X157230319Y-84533364D02*
X157331335Y-84567036D01*
X157331335Y-84567036D02*
X157432350Y-84668051D01*
X157432350Y-84668051D02*
X157466022Y-84769067D01*
X157466022Y-84769067D02*
X157466022Y-84836410D01*
X157466022Y-84836410D02*
X157432350Y-84937425D01*
X157432350Y-84937425D02*
X157162976Y-85206799D01*
X158038441Y-84061960D02*
X158509846Y-84533364D01*
X157600709Y-83960945D02*
X157937426Y-84634380D01*
X157937426Y-84634380D02*
X158375159Y-84196647D01*
X159403754Y-86739456D02*
X158831335Y-86638441D01*
X158999693Y-87143517D02*
X158292587Y-86436410D01*
X158292587Y-86436410D02*
X158561961Y-86167036D01*
X158561961Y-86167036D02*
X158662976Y-86133364D01*
X158662976Y-86133364D02*
X158730319Y-86133364D01*
X158730319Y-86133364D02*
X158831335Y-86167036D01*
X158831335Y-86167036D02*
X158932350Y-86268051D01*
X158932350Y-86268051D02*
X158966022Y-86369067D01*
X158966022Y-86369067D02*
X158966022Y-86436410D01*
X158966022Y-86436410D02*
X158932350Y-86537425D01*
X158932350Y-86537425D02*
X158662976Y-86806799D01*
X159336411Y-85392586D02*
X158999693Y-85729303D01*
X158999693Y-85729303D02*
X159302739Y-86099693D01*
X159302739Y-86099693D02*
X159302739Y-86032349D01*
X159302739Y-86032349D02*
X159336411Y-85931334D01*
X159336411Y-85931334D02*
X159504770Y-85762975D01*
X159504770Y-85762975D02*
X159605785Y-85729303D01*
X159605785Y-85729303D02*
X159673128Y-85729303D01*
X159673128Y-85729303D02*
X159774144Y-85762975D01*
X159774144Y-85762975D02*
X159942502Y-85931334D01*
X159942502Y-85931334D02*
X159976174Y-86032349D01*
X159976174Y-86032349D02*
X159976174Y-86099693D01*
X159976174Y-86099693D02*
X159942502Y-86200708D01*
X159942502Y-86200708D02*
X159774144Y-86369067D01*
X159774144Y-86369067D02*
X159673128Y-86402738D01*
X159673128Y-86402738D02*
X159605785Y-86402738D01*
X142433333Y-93954819D02*
X142100000Y-93478628D01*
X141861905Y-93954819D02*
X141861905Y-92954819D01*
X141861905Y-92954819D02*
X142242857Y-92954819D01*
X142242857Y-92954819D02*
X142338095Y-93002438D01*
X142338095Y-93002438D02*
X142385714Y-93050057D01*
X142385714Y-93050057D02*
X142433333Y-93145295D01*
X142433333Y-93145295D02*
X142433333Y-93288152D01*
X142433333Y-93288152D02*
X142385714Y-93383390D01*
X142385714Y-93383390D02*
X142338095Y-93431009D01*
X142338095Y-93431009D02*
X142242857Y-93478628D01*
X142242857Y-93478628D02*
X141861905Y-93478628D01*
X142909524Y-93954819D02*
X143100000Y-93954819D01*
X143100000Y-93954819D02*
X143195238Y-93907200D01*
X143195238Y-93907200D02*
X143242857Y-93859580D01*
X143242857Y-93859580D02*
X143338095Y-93716723D01*
X143338095Y-93716723D02*
X143385714Y-93526247D01*
X143385714Y-93526247D02*
X143385714Y-93145295D01*
X143385714Y-93145295D02*
X143338095Y-93050057D01*
X143338095Y-93050057D02*
X143290476Y-93002438D01*
X143290476Y-93002438D02*
X143195238Y-92954819D01*
X143195238Y-92954819D02*
X143004762Y-92954819D01*
X143004762Y-92954819D02*
X142909524Y-93002438D01*
X142909524Y-93002438D02*
X142861905Y-93050057D01*
X142861905Y-93050057D02*
X142814286Y-93145295D01*
X142814286Y-93145295D02*
X142814286Y-93383390D01*
X142814286Y-93383390D02*
X142861905Y-93478628D01*
X142861905Y-93478628D02*
X142909524Y-93526247D01*
X142909524Y-93526247D02*
X143004762Y-93573866D01*
X143004762Y-93573866D02*
X143195238Y-93573866D01*
X143195238Y-93573866D02*
X143290476Y-93526247D01*
X143290476Y-93526247D02*
X143338095Y-93478628D01*
X143338095Y-93478628D02*
X143385714Y-93383390D01*
X148959449Y-92188586D02*
X148959449Y-92255930D01*
X148959449Y-92255930D02*
X148892105Y-92390617D01*
X148892105Y-92390617D02*
X148824762Y-92457960D01*
X148824762Y-92457960D02*
X148690075Y-92525304D01*
X148690075Y-92525304D02*
X148555388Y-92525304D01*
X148555388Y-92525304D02*
X148454373Y-92491632D01*
X148454373Y-92491632D02*
X148286014Y-92390617D01*
X148286014Y-92390617D02*
X148184999Y-92289602D01*
X148184999Y-92289602D02*
X148083983Y-92121243D01*
X148083983Y-92121243D02*
X148050312Y-92020228D01*
X148050312Y-92020228D02*
X148050312Y-91885541D01*
X148050312Y-91885541D02*
X148117655Y-91750854D01*
X148117655Y-91750854D02*
X148184999Y-91683510D01*
X148184999Y-91683510D02*
X148319686Y-91616167D01*
X148319686Y-91616167D02*
X148387029Y-91616167D01*
X149700227Y-91582495D02*
X149296166Y-91986556D01*
X149498197Y-91784525D02*
X148791090Y-91077419D01*
X148791090Y-91077419D02*
X148824762Y-91245777D01*
X148824762Y-91245777D02*
X148824762Y-91380464D01*
X148824762Y-91380464D02*
X148791090Y-91481480D01*
X149632884Y-90235625D02*
X149296166Y-90572342D01*
X149296166Y-90572342D02*
X149599212Y-90942731D01*
X149599212Y-90942731D02*
X149599212Y-90875388D01*
X149599212Y-90875388D02*
X149632884Y-90774373D01*
X149632884Y-90774373D02*
X149801243Y-90606014D01*
X149801243Y-90606014D02*
X149902258Y-90572342D01*
X149902258Y-90572342D02*
X149969602Y-90572342D01*
X149969602Y-90572342D02*
X150070617Y-90606014D01*
X150070617Y-90606014D02*
X150238976Y-90774373D01*
X150238976Y-90774373D02*
X150272647Y-90875388D01*
X150272647Y-90875388D02*
X150272647Y-90942731D01*
X150272647Y-90942731D02*
X150238976Y-91043747D01*
X150238976Y-91043747D02*
X150070617Y-91212105D01*
X150070617Y-91212105D02*
X149969602Y-91245777D01*
X149969602Y-91245777D02*
X149902258Y-91245777D01*
X173649580Y-85822857D02*
X173697200Y-85870476D01*
X173697200Y-85870476D02*
X173744819Y-86013333D01*
X173744819Y-86013333D02*
X173744819Y-86108571D01*
X173744819Y-86108571D02*
X173697200Y-86251428D01*
X173697200Y-86251428D02*
X173601961Y-86346666D01*
X173601961Y-86346666D02*
X173506723Y-86394285D01*
X173506723Y-86394285D02*
X173316247Y-86441904D01*
X173316247Y-86441904D02*
X173173390Y-86441904D01*
X173173390Y-86441904D02*
X172982914Y-86394285D01*
X172982914Y-86394285D02*
X172887676Y-86346666D01*
X172887676Y-86346666D02*
X172792438Y-86251428D01*
X172792438Y-86251428D02*
X172744819Y-86108571D01*
X172744819Y-86108571D02*
X172744819Y-86013333D01*
X172744819Y-86013333D02*
X172792438Y-85870476D01*
X172792438Y-85870476D02*
X172840057Y-85822857D01*
X173744819Y-84870476D02*
X173744819Y-85441904D01*
X173744819Y-85156190D02*
X172744819Y-85156190D01*
X172744819Y-85156190D02*
X172887676Y-85251428D01*
X172887676Y-85251428D02*
X172982914Y-85346666D01*
X172982914Y-85346666D02*
X173030533Y-85441904D01*
X172840057Y-84489523D02*
X172792438Y-84441904D01*
X172792438Y-84441904D02*
X172744819Y-84346666D01*
X172744819Y-84346666D02*
X172744819Y-84108571D01*
X172744819Y-84108571D02*
X172792438Y-84013333D01*
X172792438Y-84013333D02*
X172840057Y-83965714D01*
X172840057Y-83965714D02*
X172935295Y-83918095D01*
X172935295Y-83918095D02*
X173030533Y-83918095D01*
X173030533Y-83918095D02*
X173173390Y-83965714D01*
X173173390Y-83965714D02*
X173744819Y-84537142D01*
X173744819Y-84537142D02*
X173744819Y-83918095D01*
X162327887Y-88836411D02*
X162260543Y-88836411D01*
X162260543Y-88836411D02*
X162125856Y-88769067D01*
X162125856Y-88769067D02*
X162058513Y-88701724D01*
X162058513Y-88701724D02*
X161991169Y-88567037D01*
X161991169Y-88567037D02*
X161991169Y-88432350D01*
X161991169Y-88432350D02*
X162024841Y-88331335D01*
X162024841Y-88331335D02*
X162125856Y-88162976D01*
X162125856Y-88162976D02*
X162226871Y-88061961D01*
X162226871Y-88061961D02*
X162395230Y-87960945D01*
X162395230Y-87960945D02*
X162496245Y-87927274D01*
X162496245Y-87927274D02*
X162630932Y-87927274D01*
X162630932Y-87927274D02*
X162765619Y-87994617D01*
X162765619Y-87994617D02*
X162832963Y-88061961D01*
X162832963Y-88061961D02*
X162900306Y-88196648D01*
X162900306Y-88196648D02*
X162900306Y-88263991D01*
X163607413Y-88836411D02*
X163270696Y-88499693D01*
X163270696Y-88499693D02*
X162900306Y-88802739D01*
X162900306Y-88802739D02*
X162967650Y-88802739D01*
X162967650Y-88802739D02*
X163068665Y-88836411D01*
X163068665Y-88836411D02*
X163237024Y-89004770D01*
X163237024Y-89004770D02*
X163270696Y-89105785D01*
X163270696Y-89105785D02*
X163270696Y-89173128D01*
X163270696Y-89173128D02*
X163237024Y-89274144D01*
X163237024Y-89274144D02*
X163068665Y-89442502D01*
X163068665Y-89442502D02*
X162967650Y-89476174D01*
X162967650Y-89476174D02*
X162900306Y-89476174D01*
X162900306Y-89476174D02*
X162799291Y-89442502D01*
X162799291Y-89442502D02*
X162630932Y-89274144D01*
X162630932Y-89274144D02*
X162597261Y-89173128D01*
X162597261Y-89173128D02*
X162597261Y-89105785D01*
X171199580Y-85772857D02*
X171247200Y-85820476D01*
X171247200Y-85820476D02*
X171294819Y-85963333D01*
X171294819Y-85963333D02*
X171294819Y-86058571D01*
X171294819Y-86058571D02*
X171247200Y-86201428D01*
X171247200Y-86201428D02*
X171151961Y-86296666D01*
X171151961Y-86296666D02*
X171056723Y-86344285D01*
X171056723Y-86344285D02*
X170866247Y-86391904D01*
X170866247Y-86391904D02*
X170723390Y-86391904D01*
X170723390Y-86391904D02*
X170532914Y-86344285D01*
X170532914Y-86344285D02*
X170437676Y-86296666D01*
X170437676Y-86296666D02*
X170342438Y-86201428D01*
X170342438Y-86201428D02*
X170294819Y-86058571D01*
X170294819Y-86058571D02*
X170294819Y-85963333D01*
X170294819Y-85963333D02*
X170342438Y-85820476D01*
X170342438Y-85820476D02*
X170390057Y-85772857D01*
X171294819Y-84820476D02*
X171294819Y-85391904D01*
X171294819Y-85106190D02*
X170294819Y-85106190D01*
X170294819Y-85106190D02*
X170437676Y-85201428D01*
X170437676Y-85201428D02*
X170532914Y-85296666D01*
X170532914Y-85296666D02*
X170580533Y-85391904D01*
X170294819Y-84201428D02*
X170294819Y-84106190D01*
X170294819Y-84106190D02*
X170342438Y-84010952D01*
X170342438Y-84010952D02*
X170390057Y-83963333D01*
X170390057Y-83963333D02*
X170485295Y-83915714D01*
X170485295Y-83915714D02*
X170675771Y-83868095D01*
X170675771Y-83868095D02*
X170913866Y-83868095D01*
X170913866Y-83868095D02*
X171104342Y-83915714D01*
X171104342Y-83915714D02*
X171199580Y-83963333D01*
X171199580Y-83963333D02*
X171247200Y-84010952D01*
X171247200Y-84010952D02*
X171294819Y-84106190D01*
X171294819Y-84106190D02*
X171294819Y-84201428D01*
X171294819Y-84201428D02*
X171247200Y-84296666D01*
X171247200Y-84296666D02*
X171199580Y-84344285D01*
X171199580Y-84344285D02*
X171104342Y-84391904D01*
X171104342Y-84391904D02*
X170913866Y-84439523D01*
X170913866Y-84439523D02*
X170675771Y-84439523D01*
X170675771Y-84439523D02*
X170485295Y-84391904D01*
X170485295Y-84391904D02*
X170390057Y-84344285D01*
X170390057Y-84344285D02*
X170342438Y-84296666D01*
X170342438Y-84296666D02*
X170294819Y-84201428D01*
X151506798Y-88708975D02*
X151506798Y-88776319D01*
X151506798Y-88776319D02*
X151439454Y-88911006D01*
X151439454Y-88911006D02*
X151372111Y-88978349D01*
X151372111Y-88978349D02*
X151237424Y-89045693D01*
X151237424Y-89045693D02*
X151102737Y-89045693D01*
X151102737Y-89045693D02*
X151001722Y-89012021D01*
X151001722Y-89012021D02*
X150833363Y-88911006D01*
X150833363Y-88911006D02*
X150732348Y-88809991D01*
X150732348Y-88809991D02*
X150631332Y-88641632D01*
X150631332Y-88641632D02*
X150597661Y-88540617D01*
X150597661Y-88540617D02*
X150597661Y-88405930D01*
X150597661Y-88405930D02*
X150665004Y-88271243D01*
X150665004Y-88271243D02*
X150732348Y-88203899D01*
X150732348Y-88203899D02*
X150867035Y-88136556D01*
X150867035Y-88136556D02*
X150934378Y-88136556D01*
X151203752Y-87867182D02*
X151203752Y-87799838D01*
X151203752Y-87799838D02*
X151237424Y-87698823D01*
X151237424Y-87698823D02*
X151405783Y-87530464D01*
X151405783Y-87530464D02*
X151506798Y-87496792D01*
X151506798Y-87496792D02*
X151574141Y-87496792D01*
X151574141Y-87496792D02*
X151675157Y-87530464D01*
X151675157Y-87530464D02*
X151742500Y-87597808D01*
X151742500Y-87597808D02*
X151809844Y-87732495D01*
X151809844Y-87732495D02*
X151809844Y-88540617D01*
X151809844Y-88540617D02*
X152247576Y-88102884D01*
X159646753Y-91275750D02*
X159074333Y-91848170D01*
X159074333Y-91848170D02*
X159040661Y-91949185D01*
X159040661Y-91949185D02*
X159040661Y-92016529D01*
X159040661Y-92016529D02*
X159074333Y-92117544D01*
X159074333Y-92117544D02*
X159209020Y-92252231D01*
X159209020Y-92252231D02*
X159310035Y-92285903D01*
X159310035Y-92285903D02*
X159377379Y-92285903D01*
X159377379Y-92285903D02*
X159478394Y-92252231D01*
X159478394Y-92252231D02*
X160050814Y-91679811D01*
X160286516Y-92050201D02*
X160353859Y-92050201D01*
X160353859Y-92050201D02*
X160454875Y-92083872D01*
X160454875Y-92083872D02*
X160623233Y-92252231D01*
X160623233Y-92252231D02*
X160656905Y-92353246D01*
X160656905Y-92353246D02*
X160656905Y-92420590D01*
X160656905Y-92420590D02*
X160623233Y-92521605D01*
X160623233Y-92521605D02*
X160555890Y-92588949D01*
X160555890Y-92588949D02*
X160421203Y-92656292D01*
X160421203Y-92656292D02*
X159613081Y-92656292D01*
X159613081Y-92656292D02*
X160050814Y-93094025D01*
X172399580Y-85772857D02*
X172447200Y-85820476D01*
X172447200Y-85820476D02*
X172494819Y-85963333D01*
X172494819Y-85963333D02*
X172494819Y-86058571D01*
X172494819Y-86058571D02*
X172447200Y-86201428D01*
X172447200Y-86201428D02*
X172351961Y-86296666D01*
X172351961Y-86296666D02*
X172256723Y-86344285D01*
X172256723Y-86344285D02*
X172066247Y-86391904D01*
X172066247Y-86391904D02*
X171923390Y-86391904D01*
X171923390Y-86391904D02*
X171732914Y-86344285D01*
X171732914Y-86344285D02*
X171637676Y-86296666D01*
X171637676Y-86296666D02*
X171542438Y-86201428D01*
X171542438Y-86201428D02*
X171494819Y-86058571D01*
X171494819Y-86058571D02*
X171494819Y-85963333D01*
X171494819Y-85963333D02*
X171542438Y-85820476D01*
X171542438Y-85820476D02*
X171590057Y-85772857D01*
X172494819Y-84820476D02*
X172494819Y-85391904D01*
X172494819Y-85106190D02*
X171494819Y-85106190D01*
X171494819Y-85106190D02*
X171637676Y-85201428D01*
X171637676Y-85201428D02*
X171732914Y-85296666D01*
X171732914Y-85296666D02*
X171780533Y-85391904D01*
X172494819Y-83868095D02*
X172494819Y-84439523D01*
X172494819Y-84153809D02*
X171494819Y-84153809D01*
X171494819Y-84153809D02*
X171637676Y-84249047D01*
X171637676Y-84249047D02*
X171732914Y-84344285D01*
X171732914Y-84344285D02*
X171780533Y-84439523D01*
X172304819Y-90041666D02*
X171828628Y-90374999D01*
X172304819Y-90613094D02*
X171304819Y-90613094D01*
X171304819Y-90613094D02*
X171304819Y-90232142D01*
X171304819Y-90232142D02*
X171352438Y-90136904D01*
X171352438Y-90136904D02*
X171400057Y-90089285D01*
X171400057Y-90089285D02*
X171495295Y-90041666D01*
X171495295Y-90041666D02*
X171638152Y-90041666D01*
X171638152Y-90041666D02*
X171733390Y-90089285D01*
X171733390Y-90089285D02*
X171781009Y-90136904D01*
X171781009Y-90136904D02*
X171828628Y-90232142D01*
X171828628Y-90232142D02*
X171828628Y-90613094D01*
X171400057Y-89660713D02*
X171352438Y-89613094D01*
X171352438Y-89613094D02*
X171304819Y-89517856D01*
X171304819Y-89517856D02*
X171304819Y-89279761D01*
X171304819Y-89279761D02*
X171352438Y-89184523D01*
X171352438Y-89184523D02*
X171400057Y-89136904D01*
X171400057Y-89136904D02*
X171495295Y-89089285D01*
X171495295Y-89089285D02*
X171590533Y-89089285D01*
X171590533Y-89089285D02*
X171733390Y-89136904D01*
X171733390Y-89136904D02*
X172304819Y-89708332D01*
X172304819Y-89708332D02*
X172304819Y-89089285D01*
X147533333Y-87354819D02*
X147200000Y-86878628D01*
X146961905Y-87354819D02*
X146961905Y-86354819D01*
X146961905Y-86354819D02*
X147342857Y-86354819D01*
X147342857Y-86354819D02*
X147438095Y-86402438D01*
X147438095Y-86402438D02*
X147485714Y-86450057D01*
X147485714Y-86450057D02*
X147533333Y-86545295D01*
X147533333Y-86545295D02*
X147533333Y-86688152D01*
X147533333Y-86688152D02*
X147485714Y-86783390D01*
X147485714Y-86783390D02*
X147438095Y-86831009D01*
X147438095Y-86831009D02*
X147342857Y-86878628D01*
X147342857Y-86878628D02*
X146961905Y-86878628D01*
X147866667Y-86354819D02*
X148533333Y-86354819D01*
X148533333Y-86354819D02*
X148104762Y-87354819D01*
X176538095Y-99854819D02*
X176538095Y-100664342D01*
X176538095Y-100664342D02*
X176585714Y-100759580D01*
X176585714Y-100759580D02*
X176633333Y-100807200D01*
X176633333Y-100807200D02*
X176728571Y-100854819D01*
X176728571Y-100854819D02*
X176919047Y-100854819D01*
X176919047Y-100854819D02*
X177014285Y-100807200D01*
X177014285Y-100807200D02*
X177061904Y-100759580D01*
X177061904Y-100759580D02*
X177109523Y-100664342D01*
X177109523Y-100664342D02*
X177109523Y-99854819D01*
X177490476Y-99854819D02*
X178109523Y-99854819D01*
X178109523Y-99854819D02*
X177776190Y-100235771D01*
X177776190Y-100235771D02*
X177919047Y-100235771D01*
X177919047Y-100235771D02*
X178014285Y-100283390D01*
X178014285Y-100283390D02*
X178061904Y-100331009D01*
X178061904Y-100331009D02*
X178109523Y-100426247D01*
X178109523Y-100426247D02*
X178109523Y-100664342D01*
X178109523Y-100664342D02*
X178061904Y-100759580D01*
X178061904Y-100759580D02*
X178014285Y-100807200D01*
X178014285Y-100807200D02*
X177919047Y-100854819D01*
X177919047Y-100854819D02*
X177633333Y-100854819D01*
X177633333Y-100854819D02*
X177538095Y-100807200D01*
X177538095Y-100807200D02*
X177490476Y-100759580D01*
X147533333Y-84054819D02*
X147200000Y-83578628D01*
X146961905Y-84054819D02*
X146961905Y-83054819D01*
X146961905Y-83054819D02*
X147342857Y-83054819D01*
X147342857Y-83054819D02*
X147438095Y-83102438D01*
X147438095Y-83102438D02*
X147485714Y-83150057D01*
X147485714Y-83150057D02*
X147533333Y-83245295D01*
X147533333Y-83245295D02*
X147533333Y-83388152D01*
X147533333Y-83388152D02*
X147485714Y-83483390D01*
X147485714Y-83483390D02*
X147438095Y-83531009D01*
X147438095Y-83531009D02*
X147342857Y-83578628D01*
X147342857Y-83578628D02*
X146961905Y-83578628D01*
X148390476Y-83054819D02*
X148200000Y-83054819D01*
X148200000Y-83054819D02*
X148104762Y-83102438D01*
X148104762Y-83102438D02*
X148057143Y-83150057D01*
X148057143Y-83150057D02*
X147961905Y-83292914D01*
X147961905Y-83292914D02*
X147914286Y-83483390D01*
X147914286Y-83483390D02*
X147914286Y-83864342D01*
X147914286Y-83864342D02*
X147961905Y-83959580D01*
X147961905Y-83959580D02*
X148009524Y-84007200D01*
X148009524Y-84007200D02*
X148104762Y-84054819D01*
X148104762Y-84054819D02*
X148295238Y-84054819D01*
X148295238Y-84054819D02*
X148390476Y-84007200D01*
X148390476Y-84007200D02*
X148438095Y-83959580D01*
X148438095Y-83959580D02*
X148485714Y-83864342D01*
X148485714Y-83864342D02*
X148485714Y-83626247D01*
X148485714Y-83626247D02*
X148438095Y-83531009D01*
X148438095Y-83531009D02*
X148390476Y-83483390D01*
X148390476Y-83483390D02*
X148295238Y-83435771D01*
X148295238Y-83435771D02*
X148104762Y-83435771D01*
X148104762Y-83435771D02*
X148009524Y-83483390D01*
X148009524Y-83483390D02*
X147961905Y-83531009D01*
X147961905Y-83531009D02*
X147914286Y-83626247D01*
D11*
X166360237Y-97874318D02*
X166360237Y-96604318D01*
X167690714Y-97753365D02*
X167630238Y-97813842D01*
X167630238Y-97813842D02*
X167448809Y-97874318D01*
X167448809Y-97874318D02*
X167327857Y-97874318D01*
X167327857Y-97874318D02*
X167146428Y-97813842D01*
X167146428Y-97813842D02*
X167025476Y-97692889D01*
X167025476Y-97692889D02*
X166964999Y-97571937D01*
X166964999Y-97571937D02*
X166904523Y-97330032D01*
X166904523Y-97330032D02*
X166904523Y-97148603D01*
X166904523Y-97148603D02*
X166964999Y-96906699D01*
X166964999Y-96906699D02*
X167025476Y-96785746D01*
X167025476Y-96785746D02*
X167146428Y-96664794D01*
X167146428Y-96664794D02*
X167327857Y-96604318D01*
X167327857Y-96604318D02*
X167448809Y-96604318D01*
X167448809Y-96604318D02*
X167630238Y-96664794D01*
X167630238Y-96664794D02*
X167690714Y-96725270D01*
X168900238Y-97874318D02*
X168174523Y-97874318D01*
X168537380Y-97874318D02*
X168537380Y-96604318D01*
X168537380Y-96604318D02*
X168416428Y-96785746D01*
X168416428Y-96785746D02*
X168295476Y-96906699D01*
X168295476Y-96906699D02*
X168174523Y-96967175D01*
D10*
X166333333Y-83654819D02*
X165857143Y-83654819D01*
X165857143Y-83654819D02*
X165857143Y-82654819D01*
X166619048Y-82750057D02*
X166666667Y-82702438D01*
X166666667Y-82702438D02*
X166761905Y-82654819D01*
X166761905Y-82654819D02*
X167000000Y-82654819D01*
X167000000Y-82654819D02*
X167095238Y-82702438D01*
X167095238Y-82702438D02*
X167142857Y-82750057D01*
X167142857Y-82750057D02*
X167190476Y-82845295D01*
X167190476Y-82845295D02*
X167190476Y-82940533D01*
X167190476Y-82940533D02*
X167142857Y-83083390D01*
X167142857Y-83083390D02*
X166571429Y-83654819D01*
X166571429Y-83654819D02*
X167190476Y-83654819D01*
X173544819Y-90041666D02*
X173068628Y-90374999D01*
X173544819Y-90613094D02*
X172544819Y-90613094D01*
X172544819Y-90613094D02*
X172544819Y-90232142D01*
X172544819Y-90232142D02*
X172592438Y-90136904D01*
X172592438Y-90136904D02*
X172640057Y-90089285D01*
X172640057Y-90089285D02*
X172735295Y-90041666D01*
X172735295Y-90041666D02*
X172878152Y-90041666D01*
X172878152Y-90041666D02*
X172973390Y-90089285D01*
X172973390Y-90089285D02*
X173021009Y-90136904D01*
X173021009Y-90136904D02*
X173068628Y-90232142D01*
X173068628Y-90232142D02*
X173068628Y-90613094D01*
X173544819Y-89089285D02*
X173544819Y-89660713D01*
X173544819Y-89374999D02*
X172544819Y-89374999D01*
X172544819Y-89374999D02*
X172687676Y-89470237D01*
X172687676Y-89470237D02*
X172782914Y-89565475D01*
X172782914Y-89565475D02*
X172830533Y-89660713D01*
X158994649Y-87169363D02*
X158927305Y-87169363D01*
X158927305Y-87169363D02*
X158792618Y-87102019D01*
X158792618Y-87102019D02*
X158725275Y-87034676D01*
X158725275Y-87034676D02*
X158657931Y-86899989D01*
X158657931Y-86899989D02*
X158657931Y-86765302D01*
X158657931Y-86765302D02*
X158691603Y-86664287D01*
X158691603Y-86664287D02*
X158792618Y-86495928D01*
X158792618Y-86495928D02*
X158893633Y-86394913D01*
X158893633Y-86394913D02*
X159061992Y-86293897D01*
X159061992Y-86293897D02*
X159163007Y-86260226D01*
X159163007Y-86260226D02*
X159297694Y-86260226D01*
X159297694Y-86260226D02*
X159432381Y-86327569D01*
X159432381Y-86327569D02*
X159499725Y-86394913D01*
X159499725Y-86394913D02*
X159567068Y-86529600D01*
X159567068Y-86529600D02*
X159567068Y-86596943D01*
X160240503Y-87135691D02*
X160105816Y-87001004D01*
X160105816Y-87001004D02*
X160004801Y-86967332D01*
X160004801Y-86967332D02*
X159937458Y-86967332D01*
X159937458Y-86967332D02*
X159769099Y-87001004D01*
X159769099Y-87001004D02*
X159600740Y-87102019D01*
X159600740Y-87102019D02*
X159331366Y-87371393D01*
X159331366Y-87371393D02*
X159297694Y-87472409D01*
X159297694Y-87472409D02*
X159297694Y-87539752D01*
X159297694Y-87539752D02*
X159331366Y-87640767D01*
X159331366Y-87640767D02*
X159466053Y-87775454D01*
X159466053Y-87775454D02*
X159567068Y-87809126D01*
X159567068Y-87809126D02*
X159634412Y-87809126D01*
X159634412Y-87809126D02*
X159735427Y-87775454D01*
X159735427Y-87775454D02*
X159903786Y-87607096D01*
X159903786Y-87607096D02*
X159937458Y-87506080D01*
X159937458Y-87506080D02*
X159937458Y-87438737D01*
X159937458Y-87438737D02*
X159903786Y-87337722D01*
X159903786Y-87337722D02*
X159769099Y-87203035D01*
X159769099Y-87203035D02*
X159668084Y-87169363D01*
X159668084Y-87169363D02*
X159600740Y-87169363D01*
X159600740Y-87169363D02*
X159499725Y-87203035D01*
D11*
X148266718Y-97432748D02*
X147368692Y-96534722D01*
X149121980Y-96406433D02*
X149121980Y-96491959D01*
X149121980Y-96491959D02*
X149036454Y-96663012D01*
X149036454Y-96663012D02*
X148950928Y-96748538D01*
X148950928Y-96748538D02*
X148779875Y-96834064D01*
X148779875Y-96834064D02*
X148608823Y-96834064D01*
X148608823Y-96834064D02*
X148480533Y-96791301D01*
X148480533Y-96791301D02*
X148266718Y-96663012D01*
X148266718Y-96663012D02*
X148138428Y-96534722D01*
X148138428Y-96534722D02*
X148010139Y-96320907D01*
X148010139Y-96320907D02*
X147967376Y-96192617D01*
X147967376Y-96192617D02*
X147967376Y-96021565D01*
X147967376Y-96021565D02*
X148052902Y-95850512D01*
X148052902Y-95850512D02*
X148138428Y-95764986D01*
X148138428Y-95764986D02*
X148309481Y-95679460D01*
X148309481Y-95679460D02*
X148395007Y-95679460D01*
X148737112Y-95337355D02*
X148737112Y-95251829D01*
X148737112Y-95251829D02*
X148779875Y-95123539D01*
X148779875Y-95123539D02*
X148993691Y-94909724D01*
X148993691Y-94909724D02*
X149121980Y-94866960D01*
X149121980Y-94866960D02*
X149207506Y-94866960D01*
X149207506Y-94866960D02*
X149335796Y-94909724D01*
X149335796Y-94909724D02*
X149421322Y-94995250D01*
X149421322Y-94995250D02*
X149506848Y-95166302D01*
X149506848Y-95166302D02*
X149506848Y-96192617D01*
X149506848Y-96192617D02*
X150062769Y-95636697D01*
D10*
X166483333Y-93074819D02*
X166150000Y-92598628D01*
X165911905Y-93074819D02*
X165911905Y-92074819D01*
X165911905Y-92074819D02*
X166292857Y-92074819D01*
X166292857Y-92074819D02*
X166388095Y-92122438D01*
X166388095Y-92122438D02*
X166435714Y-92170057D01*
X166435714Y-92170057D02*
X166483333Y-92265295D01*
X166483333Y-92265295D02*
X166483333Y-92408152D01*
X166483333Y-92408152D02*
X166435714Y-92503390D01*
X166435714Y-92503390D02*
X166388095Y-92551009D01*
X166388095Y-92551009D02*
X166292857Y-92598628D01*
X166292857Y-92598628D02*
X165911905Y-92598628D01*
X166816667Y-92074819D02*
X167435714Y-92074819D01*
X167435714Y-92074819D02*
X167102381Y-92455771D01*
X167102381Y-92455771D02*
X167245238Y-92455771D01*
X167245238Y-92455771D02*
X167340476Y-92503390D01*
X167340476Y-92503390D02*
X167388095Y-92551009D01*
X167388095Y-92551009D02*
X167435714Y-92646247D01*
X167435714Y-92646247D02*
X167435714Y-92884342D01*
X167435714Y-92884342D02*
X167388095Y-92979580D01*
X167388095Y-92979580D02*
X167340476Y-93027200D01*
X167340476Y-93027200D02*
X167245238Y-93074819D01*
X167245238Y-93074819D02*
X166959524Y-93074819D01*
X166959524Y-93074819D02*
X166864286Y-93027200D01*
X166864286Y-93027200D02*
X166816667Y-92979580D01*
X141957142Y-97154819D02*
X141623809Y-96678628D01*
X141385714Y-97154819D02*
X141385714Y-96154819D01*
X141385714Y-96154819D02*
X141766666Y-96154819D01*
X141766666Y-96154819D02*
X141861904Y-96202438D01*
X141861904Y-96202438D02*
X141909523Y-96250057D01*
X141909523Y-96250057D02*
X141957142Y-96345295D01*
X141957142Y-96345295D02*
X141957142Y-96488152D01*
X141957142Y-96488152D02*
X141909523Y-96583390D01*
X141909523Y-96583390D02*
X141861904Y-96631009D01*
X141861904Y-96631009D02*
X141766666Y-96678628D01*
X141766666Y-96678628D02*
X141385714Y-96678628D01*
X142909523Y-97154819D02*
X142338095Y-97154819D01*
X142623809Y-97154819D02*
X142623809Y-96154819D01*
X142623809Y-96154819D02*
X142528571Y-96297676D01*
X142528571Y-96297676D02*
X142433333Y-96392914D01*
X142433333Y-96392914D02*
X142338095Y-96440533D01*
X143528571Y-96154819D02*
X143623809Y-96154819D01*
X143623809Y-96154819D02*
X143719047Y-96202438D01*
X143719047Y-96202438D02*
X143766666Y-96250057D01*
X143766666Y-96250057D02*
X143814285Y-96345295D01*
X143814285Y-96345295D02*
X143861904Y-96535771D01*
X143861904Y-96535771D02*
X143861904Y-96773866D01*
X143861904Y-96773866D02*
X143814285Y-96964342D01*
X143814285Y-96964342D02*
X143766666Y-97059580D01*
X143766666Y-97059580D02*
X143719047Y-97107200D01*
X143719047Y-97107200D02*
X143623809Y-97154819D01*
X143623809Y-97154819D02*
X143528571Y-97154819D01*
X143528571Y-97154819D02*
X143433333Y-97107200D01*
X143433333Y-97107200D02*
X143385714Y-97059580D01*
X143385714Y-97059580D02*
X143338095Y-96964342D01*
X143338095Y-96964342D02*
X143290476Y-96773866D01*
X143290476Y-96773866D02*
X143290476Y-96535771D01*
X143290476Y-96535771D02*
X143338095Y-96345295D01*
X143338095Y-96345295D02*
X143385714Y-96250057D01*
X143385714Y-96250057D02*
X143433333Y-96202438D01*
X143433333Y-96202438D02*
X143528571Y-96154819D01*
X153296066Y-95452945D02*
X153296066Y-95520289D01*
X153296066Y-95520289D02*
X153228722Y-95654976D01*
X153228722Y-95654976D02*
X153161379Y-95722319D01*
X153161379Y-95722319D02*
X153026692Y-95789663D01*
X153026692Y-95789663D02*
X152892005Y-95789663D01*
X152892005Y-95789663D02*
X152790990Y-95755991D01*
X152790990Y-95755991D02*
X152622631Y-95654976D01*
X152622631Y-95654976D02*
X152521616Y-95553961D01*
X152521616Y-95553961D02*
X152420600Y-95385602D01*
X152420600Y-95385602D02*
X152386929Y-95284587D01*
X152386929Y-95284587D02*
X152386929Y-95149900D01*
X152386929Y-95149900D02*
X152454272Y-95015213D01*
X152454272Y-95015213D02*
X152521616Y-94947869D01*
X152521616Y-94947869D02*
X152656303Y-94880526D01*
X152656303Y-94880526D02*
X152723646Y-94880526D01*
X153498096Y-94442793D02*
X153969501Y-94914197D01*
X153060364Y-94341778D02*
X153397081Y-95015213D01*
X153397081Y-95015213D02*
X153834814Y-94577480D01*
X161660543Y-84703754D02*
X161323825Y-84367037D01*
X161323825Y-84367037D02*
X162030932Y-83659930D01*
X162266635Y-85309846D02*
X161862574Y-84905785D01*
X162064604Y-85107815D02*
X162771711Y-84400709D01*
X162771711Y-84400709D02*
X162603352Y-84434380D01*
X162603352Y-84434380D02*
X162468665Y-84434380D01*
X162468665Y-84434380D02*
X162367650Y-84400709D01*
X179057142Y-97859580D02*
X179009523Y-97907200D01*
X179009523Y-97907200D02*
X178866666Y-97954819D01*
X178866666Y-97954819D02*
X178771428Y-97954819D01*
X178771428Y-97954819D02*
X178628571Y-97907200D01*
X178628571Y-97907200D02*
X178533333Y-97811961D01*
X178533333Y-97811961D02*
X178485714Y-97716723D01*
X178485714Y-97716723D02*
X178438095Y-97526247D01*
X178438095Y-97526247D02*
X178438095Y-97383390D01*
X178438095Y-97383390D02*
X178485714Y-97192914D01*
X178485714Y-97192914D02*
X178533333Y-97097676D01*
X178533333Y-97097676D02*
X178628571Y-97002438D01*
X178628571Y-97002438D02*
X178771428Y-96954819D01*
X178771428Y-96954819D02*
X178866666Y-96954819D01*
X178866666Y-96954819D02*
X179009523Y-97002438D01*
X179009523Y-97002438D02*
X179057142Y-97050057D01*
X180009523Y-97954819D02*
X179438095Y-97954819D01*
X179723809Y-97954819D02*
X179723809Y-96954819D01*
X179723809Y-96954819D02*
X179628571Y-97097676D01*
X179628571Y-97097676D02*
X179533333Y-97192914D01*
X179533333Y-97192914D02*
X179438095Y-97240533D01*
X180342857Y-96954819D02*
X180961904Y-96954819D01*
X180961904Y-96954819D02*
X180628571Y-97335771D01*
X180628571Y-97335771D02*
X180771428Y-97335771D01*
X180771428Y-97335771D02*
X180866666Y-97383390D01*
X180866666Y-97383390D02*
X180914285Y-97431009D01*
X180914285Y-97431009D02*
X180961904Y-97526247D01*
X180961904Y-97526247D02*
X180961904Y-97764342D01*
X180961904Y-97764342D02*
X180914285Y-97859580D01*
X180914285Y-97859580D02*
X180866666Y-97907200D01*
X180866666Y-97907200D02*
X180771428Y-97954819D01*
X180771428Y-97954819D02*
X180485714Y-97954819D01*
X180485714Y-97954819D02*
X180390476Y-97907200D01*
X180390476Y-97907200D02*
X180342857Y-97859580D01*
X148908810Y-93696769D02*
X148908810Y-93764113D01*
X148908810Y-93764113D02*
X148841466Y-93898800D01*
X148841466Y-93898800D02*
X148774123Y-93966143D01*
X148774123Y-93966143D02*
X148639436Y-94033487D01*
X148639436Y-94033487D02*
X148504749Y-94033487D01*
X148504749Y-94033487D02*
X148403734Y-93999815D01*
X148403734Y-93999815D02*
X148235375Y-93898800D01*
X148235375Y-93898800D02*
X148134360Y-93797785D01*
X148134360Y-93797785D02*
X148033344Y-93629426D01*
X148033344Y-93629426D02*
X147999673Y-93528411D01*
X147999673Y-93528411D02*
X147999673Y-93393724D01*
X147999673Y-93393724D02*
X148067016Y-93259037D01*
X148067016Y-93259037D02*
X148134360Y-93191693D01*
X148134360Y-93191693D02*
X148269047Y-93124350D01*
X148269047Y-93124350D02*
X148336390Y-93124350D01*
X149649588Y-93090678D02*
X149245527Y-93494739D01*
X149447558Y-93292708D02*
X148740451Y-92585602D01*
X148740451Y-92585602D02*
X148774123Y-92753960D01*
X148774123Y-92753960D02*
X148774123Y-92888647D01*
X148774123Y-92888647D02*
X148740451Y-92989663D01*
X149649589Y-92282556D02*
X149548573Y-92316227D01*
X149548573Y-92316227D02*
X149481230Y-92316227D01*
X149481230Y-92316227D02*
X149380215Y-92282556D01*
X149380215Y-92282556D02*
X149346543Y-92248884D01*
X149346543Y-92248884D02*
X149312871Y-92147869D01*
X149312871Y-92147869D02*
X149312871Y-92080525D01*
X149312871Y-92080525D02*
X149346543Y-91979510D01*
X149346543Y-91979510D02*
X149481230Y-91844823D01*
X149481230Y-91844823D02*
X149582245Y-91811151D01*
X149582245Y-91811151D02*
X149649589Y-91811151D01*
X149649589Y-91811151D02*
X149750604Y-91844823D01*
X149750604Y-91844823D02*
X149784276Y-91878495D01*
X149784276Y-91878495D02*
X149817947Y-91979510D01*
X149817947Y-91979510D02*
X149817947Y-92046853D01*
X149817947Y-92046853D02*
X149784276Y-92147869D01*
X149784276Y-92147869D02*
X149649589Y-92282556D01*
X149649589Y-92282556D02*
X149615917Y-92383571D01*
X149615917Y-92383571D02*
X149615917Y-92450914D01*
X149615917Y-92450914D02*
X149649589Y-92551930D01*
X149649589Y-92551930D02*
X149784276Y-92686617D01*
X149784276Y-92686617D02*
X149885291Y-92720288D01*
X149885291Y-92720288D02*
X149952634Y-92720288D01*
X149952634Y-92720288D02*
X150053650Y-92686617D01*
X150053650Y-92686617D02*
X150188337Y-92551930D01*
X150188337Y-92551930D02*
X150222008Y-92450914D01*
X150222008Y-92450914D02*
X150222008Y-92383571D01*
X150222008Y-92383571D02*
X150188337Y-92282556D01*
X150188337Y-92282556D02*
X150053650Y-92147869D01*
X150053650Y-92147869D02*
X149952634Y-92114197D01*
X149952634Y-92114197D02*
X149885291Y-92114197D01*
X149885291Y-92114197D02*
X149784276Y-92147869D01*
X170407142Y-95419580D02*
X170359523Y-95467200D01*
X170359523Y-95467200D02*
X170216666Y-95514819D01*
X170216666Y-95514819D02*
X170121428Y-95514819D01*
X170121428Y-95514819D02*
X169978571Y-95467200D01*
X169978571Y-95467200D02*
X169883333Y-95371961D01*
X169883333Y-95371961D02*
X169835714Y-95276723D01*
X169835714Y-95276723D02*
X169788095Y-95086247D01*
X169788095Y-95086247D02*
X169788095Y-94943390D01*
X169788095Y-94943390D02*
X169835714Y-94752914D01*
X169835714Y-94752914D02*
X169883333Y-94657676D01*
X169883333Y-94657676D02*
X169978571Y-94562438D01*
X169978571Y-94562438D02*
X170121428Y-94514819D01*
X170121428Y-94514819D02*
X170216666Y-94514819D01*
X170216666Y-94514819D02*
X170359523Y-94562438D01*
X170359523Y-94562438D02*
X170407142Y-94610057D01*
X171359523Y-95514819D02*
X170788095Y-95514819D01*
X171073809Y-95514819D02*
X171073809Y-94514819D01*
X171073809Y-94514819D02*
X170978571Y-94657676D01*
X170978571Y-94657676D02*
X170883333Y-94752914D01*
X170883333Y-94752914D02*
X170788095Y-94800533D01*
X172216666Y-94848152D02*
X172216666Y-95514819D01*
X171978571Y-94467200D02*
X171740476Y-95181485D01*
X171740476Y-95181485D02*
X172359523Y-95181485D01*
X170079580Y-91916666D02*
X170127200Y-91964285D01*
X170127200Y-91964285D02*
X170174819Y-92107142D01*
X170174819Y-92107142D02*
X170174819Y-92202380D01*
X170174819Y-92202380D02*
X170127200Y-92345237D01*
X170127200Y-92345237D02*
X170031961Y-92440475D01*
X170031961Y-92440475D02*
X169936723Y-92488094D01*
X169936723Y-92488094D02*
X169746247Y-92535713D01*
X169746247Y-92535713D02*
X169603390Y-92535713D01*
X169603390Y-92535713D02*
X169412914Y-92488094D01*
X169412914Y-92488094D02*
X169317676Y-92440475D01*
X169317676Y-92440475D02*
X169222438Y-92345237D01*
X169222438Y-92345237D02*
X169174819Y-92202380D01*
X169174819Y-92202380D02*
X169174819Y-92107142D01*
X169174819Y-92107142D02*
X169222438Y-91964285D01*
X169222438Y-91964285D02*
X169270057Y-91916666D01*
X169603390Y-91345237D02*
X169555771Y-91440475D01*
X169555771Y-91440475D02*
X169508152Y-91488094D01*
X169508152Y-91488094D02*
X169412914Y-91535713D01*
X169412914Y-91535713D02*
X169365295Y-91535713D01*
X169365295Y-91535713D02*
X169270057Y-91488094D01*
X169270057Y-91488094D02*
X169222438Y-91440475D01*
X169222438Y-91440475D02*
X169174819Y-91345237D01*
X169174819Y-91345237D02*
X169174819Y-91154761D01*
X169174819Y-91154761D02*
X169222438Y-91059523D01*
X169222438Y-91059523D02*
X169270057Y-91011904D01*
X169270057Y-91011904D02*
X169365295Y-90964285D01*
X169365295Y-90964285D02*
X169412914Y-90964285D01*
X169412914Y-90964285D02*
X169508152Y-91011904D01*
X169508152Y-91011904D02*
X169555771Y-91059523D01*
X169555771Y-91059523D02*
X169603390Y-91154761D01*
X169603390Y-91154761D02*
X169603390Y-91345237D01*
X169603390Y-91345237D02*
X169651009Y-91440475D01*
X169651009Y-91440475D02*
X169698628Y-91488094D01*
X169698628Y-91488094D02*
X169793866Y-91535713D01*
X169793866Y-91535713D02*
X169984342Y-91535713D01*
X169984342Y-91535713D02*
X170079580Y-91488094D01*
X170079580Y-91488094D02*
X170127200Y-91440475D01*
X170127200Y-91440475D02*
X170174819Y-91345237D01*
X170174819Y-91345237D02*
X170174819Y-91154761D01*
X170174819Y-91154761D02*
X170127200Y-91059523D01*
X170127200Y-91059523D02*
X170079580Y-91011904D01*
X170079580Y-91011904D02*
X169984342Y-90964285D01*
X169984342Y-90964285D02*
X169793866Y-90964285D01*
X169793866Y-90964285D02*
X169698628Y-91011904D01*
X169698628Y-91011904D02*
X169651009Y-91059523D01*
X169651009Y-91059523D02*
X169603390Y-91154761D01*
X149679449Y-92888586D02*
X149679449Y-92955930D01*
X149679449Y-92955930D02*
X149612105Y-93090617D01*
X149612105Y-93090617D02*
X149544762Y-93157960D01*
X149544762Y-93157960D02*
X149410075Y-93225304D01*
X149410075Y-93225304D02*
X149275388Y-93225304D01*
X149275388Y-93225304D02*
X149174373Y-93191632D01*
X149174373Y-93191632D02*
X149006014Y-93090617D01*
X149006014Y-93090617D02*
X148904999Y-92989602D01*
X148904999Y-92989602D02*
X148803983Y-92821243D01*
X148803983Y-92821243D02*
X148770312Y-92720228D01*
X148770312Y-92720228D02*
X148770312Y-92585541D01*
X148770312Y-92585541D02*
X148837655Y-92450854D01*
X148837655Y-92450854D02*
X148904999Y-92383510D01*
X148904999Y-92383510D02*
X149039686Y-92316167D01*
X149039686Y-92316167D02*
X149107029Y-92316167D01*
X150420227Y-92282495D02*
X150016166Y-92686556D01*
X150218197Y-92484525D02*
X149511090Y-91777419D01*
X149511090Y-91777419D02*
X149544762Y-91945777D01*
X149544762Y-91945777D02*
X149544762Y-92080464D01*
X149544762Y-92080464D02*
X149511090Y-92181480D01*
X150319212Y-90969296D02*
X150184525Y-91103983D01*
X150184525Y-91103983D02*
X150150854Y-91204999D01*
X150150854Y-91204999D02*
X150150854Y-91272342D01*
X150150854Y-91272342D02*
X150184525Y-91440701D01*
X150184525Y-91440701D02*
X150285541Y-91609060D01*
X150285541Y-91609060D02*
X150554915Y-91878434D01*
X150554915Y-91878434D02*
X150655930Y-91912105D01*
X150655930Y-91912105D02*
X150723273Y-91912105D01*
X150723273Y-91912105D02*
X150824289Y-91878434D01*
X150824289Y-91878434D02*
X150958976Y-91743747D01*
X150958976Y-91743747D02*
X150992647Y-91642731D01*
X150992647Y-91642731D02*
X150992647Y-91575388D01*
X150992647Y-91575388D02*
X150958976Y-91474373D01*
X150958976Y-91474373D02*
X150790617Y-91306014D01*
X150790617Y-91306014D02*
X150689602Y-91272342D01*
X150689602Y-91272342D02*
X150622258Y-91272342D01*
X150622258Y-91272342D02*
X150521243Y-91306014D01*
X150521243Y-91306014D02*
X150386556Y-91440701D01*
X150386556Y-91440701D02*
X150352884Y-91541716D01*
X150352884Y-91541716D02*
X150352884Y-91609060D01*
X150352884Y-91609060D02*
X150386556Y-91710075D01*
D12*
%TO.C,C7*%
X163540000Y-89122164D02*
X163540000Y-89337836D01*
X164260000Y-89122164D02*
X164260000Y-89337836D01*
%TO.C,R8*%
X145159219Y-94648353D02*
X145396271Y-94411301D01*
X145696621Y-95185755D02*
X145933673Y-94948703D01*
%TO.C,C17*%
X147229779Y-91261104D02*
X147382282Y-91108601D01*
X147738896Y-91770221D02*
X147891399Y-91617718D01*
%TO.C,C1*%
X152521836Y-85097429D02*
X152369333Y-84944926D01*
X153030953Y-84588312D02*
X152878450Y-84435809D01*
%TO.C,C9*%
X170460000Y-89742164D02*
X170460000Y-89957836D01*
X171180000Y-89742164D02*
X171180000Y-89957836D01*
D13*
%TO.C,J3*%
X140850000Y-83730000D02*
X144030000Y-83730000D01*
X140850000Y-84600000D02*
X140850000Y-83730000D01*
X140850000Y-89400000D02*
X140850000Y-87000000D01*
X140870000Y-92670000D02*
X140870000Y-91800000D01*
D14*
X141585000Y-93100000D02*
X141585000Y-93100000D01*
X141585000Y-93200000D02*
X141585000Y-93200000D01*
D13*
X144030000Y-83730000D02*
X144030000Y-84600000D01*
X144050000Y-87000000D02*
X144050000Y-89400000D01*
X144050000Y-91800000D02*
X144050000Y-92670000D01*
X144050000Y-92670000D02*
X140870000Y-92670000D01*
D14*
X141585000Y-93100000D02*
G75*
G02*
X141585000Y-93200000I0J-50000D01*
G01*
X141585000Y-93200000D02*
G75*
G02*
X141585000Y-93100000I0J50000D01*
G01*
D13*
%TO.C,IC3*%
X141400000Y-97600000D02*
X141400000Y-97600000D01*
X141400000Y-97600000D02*
X141400000Y-97600000D01*
X141500000Y-97600000D02*
X141500000Y-97600000D01*
X141400000Y-97600000D02*
G75*
G02*
X141500000Y-97600000I50000J0D01*
G01*
X141500000Y-97600000D02*
G75*
G02*
X141400000Y-97600000I-50000J0D01*
G01*
X141500000Y-97600000D02*
G75*
G02*
X141400000Y-97600000I-50000J0D01*
G01*
D12*
%TO.C,J1*%
X172640000Y-96300000D02*
X172640000Y-96866529D01*
X172640000Y-96300000D02*
X172640000Y-99830000D01*
X172640000Y-96300000D02*
X172705000Y-96300000D01*
X172640000Y-97993471D02*
X172640000Y-98136529D01*
X172693471Y-98190000D02*
X172836529Y-98190000D01*
X173400000Y-96300000D02*
X174160000Y-96300000D01*
X173963471Y-98190000D02*
X174095000Y-98190000D01*
X174095000Y-98190000D02*
X174095000Y-98392470D01*
X174095000Y-99007530D02*
X174095000Y-99830000D01*
X174095000Y-99830000D02*
X172705000Y-99830000D01*
X174160000Y-96300000D02*
X174160000Y-97430000D01*
%TO.C,U4*%
X164971000Y-90400000D02*
X164971000Y-90150000D01*
X164971000Y-90400000D02*
X165636000Y-90400000D01*
X165321000Y-87100000D02*
X165636000Y-87100000D01*
X167606000Y-87100000D02*
X168271000Y-87100000D01*
X167606000Y-90400000D02*
X168271000Y-90400000D01*
X168271000Y-87350000D02*
X168271000Y-87100000D01*
X168271000Y-90150000D02*
X168271000Y-90400000D01*
X164811000Y-87330000D02*
X164571000Y-87000000D01*
X165051000Y-87000000D01*
X164811000Y-87330000D01*
G36*
X164811000Y-87330000D02*
G01*
X164571000Y-87000000D01*
X165051000Y-87000000D01*
X164811000Y-87330000D01*
G37*
%TO.C,R4*%
X158239940Y-85022659D02*
X158022659Y-85239940D01*
X158777341Y-85560060D02*
X158560060Y-85777341D01*
%TO.C,R5*%
X159766215Y-86548791D02*
X159548934Y-86766072D01*
X160303616Y-87086192D02*
X160086335Y-87303473D01*
%TO.C,R9*%
X142767621Y-94120000D02*
X142432379Y-94120000D01*
X142767621Y-94880000D02*
X142432379Y-94880000D01*
%TO.C,C15*%
X149649190Y-92121693D02*
X149801693Y-91969190D01*
X150158307Y-92630810D02*
X150310810Y-92478307D01*
%TO.C,C12*%
X172680000Y-87727836D02*
X172680000Y-87512164D01*
X173400000Y-87727836D02*
X173400000Y-87512164D01*
%TO.C,C5*%
X161029922Y-87705515D02*
X161182425Y-87858018D01*
X161539039Y-87196398D02*
X161691542Y-87348901D01*
%TO.C,C10*%
X170530000Y-87737836D02*
X170530000Y-87522164D01*
X171250000Y-87737836D02*
X171250000Y-87522164D01*
%TO.C,C2*%
X150371836Y-87185809D02*
X150219333Y-87338312D01*
X150880953Y-87694926D02*
X150728450Y-87847429D01*
%TO.C,U2*%
X150028070Y-89633238D02*
X150363946Y-89297362D01*
X150363946Y-89969114D02*
X150028070Y-89633238D01*
X154797505Y-84863803D02*
X154963675Y-84697633D01*
X154797505Y-94402673D02*
X155133381Y-94738549D01*
X155133381Y-94738549D02*
X155469257Y-94402673D01*
X155469257Y-84863803D02*
X155345513Y-84740059D01*
X159902816Y-89297362D02*
X160238692Y-89633238D01*
X160238692Y-89633238D02*
X159902816Y-89969114D01*
X155536432Y-84464287D02*
X155133381Y-84527927D01*
X155197021Y-84124876D01*
X155536432Y-84464287D01*
G36*
X155536432Y-84464287D02*
G01*
X155133381Y-84527927D01*
X155197021Y-84124876D01*
X155536432Y-84464287D01*
G37*
%TO.C,C11*%
X171640000Y-87727836D02*
X171640000Y-87512164D01*
X172360000Y-87727836D02*
X172360000Y-87512164D01*
%TO.C,R2*%
X172640000Y-90028641D02*
X172640000Y-89721359D01*
X173400000Y-90028641D02*
X173400000Y-89721359D01*
%TO.C,R7*%
X147867621Y-85420000D02*
X147532379Y-85420000D01*
X147867621Y-86180000D02*
X147532379Y-86180000D01*
%TO.C,U3*%
X175115000Y-99795000D02*
X175115000Y-99100000D01*
X175800000Y-99795000D02*
X175115000Y-99795000D01*
X176485000Y-98405000D02*
X179360000Y-98405000D01*
X176485000Y-98491724D02*
X176485000Y-98405000D01*
X176485000Y-99795000D02*
X176485000Y-99708276D01*
X176485000Y-99795000D02*
X179360000Y-99795000D01*
X179360000Y-98705507D02*
X179360000Y-98405000D01*
X179360000Y-99795000D02*
X179360000Y-99494493D01*
%TO.C,R6*%
X147867621Y-84320000D02*
X147532379Y-84320000D01*
X147867621Y-85080000D02*
X147532379Y-85080000D01*
D13*
%TO.C,IC1*%
X166000000Y-94850000D02*
X169200000Y-94850000D01*
X166000000Y-99750000D02*
X166000000Y-94850000D01*
X169200000Y-94850000D02*
X169200000Y-99750000D01*
X169200000Y-99750000D02*
X166000000Y-99750000D01*
X171075000Y-99880000D02*
X169550000Y-99880000D01*
D12*
%TO.C,L2*%
X166415000Y-84300000D02*
X166700000Y-84300000D01*
X166700000Y-85900000D02*
X166430000Y-85900000D01*
%TO.C,R1*%
X171540000Y-89721359D02*
X171540000Y-90028641D01*
X172300000Y-89721359D02*
X172300000Y-90028641D01*
%TO.C,C6*%
X160964191Y-88088169D02*
X160811688Y-87935666D01*
X160455074Y-88597286D02*
X160302571Y-88444783D01*
D15*
%TO.C,IC2*%
X151955850Y-95884835D02*
G75*
G02*
X151705850Y-95884835I-125000J0D01*
G01*
X151705850Y-95884835D02*
G75*
G02*
X151955850Y-95884835I125000J0D01*
G01*
D12*
%TO.C,R3*%
X166803641Y-91070000D02*
X166496359Y-91070000D01*
X166803641Y-91830000D02*
X166496359Y-91830000D01*
%TO.C,R10*%
X142767621Y-95220000D02*
X142432379Y-95220000D01*
X142767621Y-95980000D02*
X142432379Y-95980000D01*
%TO.C,C4*%
X152161104Y-93929779D02*
X152008601Y-94082282D01*
X152670221Y-94438896D02*
X152517718Y-94591399D01*
%TO.C,L1*%
X160954621Y-85992346D02*
X160724416Y-85762141D01*
X161675870Y-85271097D02*
X161445665Y-85040892D01*
%TO.C,C13*%
X177092164Y-97040000D02*
X177307836Y-97040000D01*
X177092164Y-97760000D02*
X177307836Y-97760000D01*
%TO.C,C18*%
X147929779Y-91961104D02*
X148082282Y-91808601D01*
X148438896Y-92470221D02*
X148591399Y-92317718D01*
%TO.C,C14*%
X171157836Y-93540000D02*
X170942164Y-93540000D01*
X171157836Y-94260000D02*
X170942164Y-94260000D01*
%TO.C,C8*%
X169360000Y-89957836D02*
X169360000Y-89742164D01*
X170080000Y-89957836D02*
X170080000Y-89742164D01*
%TO.C,C16*%
X150369190Y-92821693D02*
X150521693Y-92669190D01*
X150878307Y-93330810D02*
X151030810Y-93178307D01*
%TD*%
M02*
